<!-- Generator: Adobe Illustrator 19.0.0, SVG Export Plug-In  -->
<svg version="1.1"
	 xmlns="http://www.w3.org/2000/svg" xmlns:xlink="http://www.w3.org/1999/xlink" xmlns:a="http://ns.adobe.com/AdobeSVGViewerExtensions/3.0/"
	 x="0px" y="0px" width="78.2px" height="147.2px" viewBox="0 0 78.2 147.2" style="enable-background:new 0 0 78.2 147.2;"
	 xml:space="preserve">
<style type="text/css">
	.st0{fill:url(#SVGID_1_);}
	.st1{fill:url(#SVGID_2_);}
</style>
<defs>
</defs>
<linearGradient id="SVGID_1_" gradientUnits="userSpaceOnUse" x1="39.0996" y1="1.0604" x2="39.0996" y2="322.7725">
	<stop  offset="0" style="stop-color:#68FDAB"/>
	<stop  offset="0.9703" style="stop-color:#29E8EC"/>
	<stop  offset="1" style="stop-color:#27E7EE"/>
</linearGradient>
<path class="st0" d="M78.2,114c0,10.4-2,17.6-7.6,23.2c-8.4,8.8-21.6,10-31,10C7.8,147.2,0,132,0,114V35c0-6,0.2-16.6,7.4-24.2
	C12.8,5,23.4,0,39.4,0c12.8,0,22.8,3.4,29.4,8.8c7,5.8,9.4,13.2,9.4,26.8V114z M52,37.4c0-7.4,0-17.6-12.6-17.6
	C26,19.8,26,30.6,26,38.4v71.2c0,8,0.4,17.2,13.2,17.2S52,117,52,110.2V37.4z"/>
</svg>
