<!-- Generator: Adobe Illustrator 19.0.0, SVG Export Plug-In  -->
<svg version="1.1"
	 xmlns="http://www.w3.org/2000/svg" xmlns:xlink="http://www.w3.org/1999/xlink" xmlns:a="http://ns.adobe.com/AdobeSVGViewerExtensions/3.0/"
	 x="0px" y="0px" width="84.4px" height="141.4px" viewBox="0 0 84.4 141.4" style="enable-background:new 0 0 84.4 141.4;"
	 xml:space="preserve">
<style type="text/css">
	.st0{fill:url(#SVGID_1_);}
	.st1{fill:url(#SVGID_2_);}
</style>
<defs>
</defs>
<linearGradient id="SVGID_1_" gradientUnits="userSpaceOnUse" x1="42.1992" y1="-182.7394" x2="42.1992" y2="138.9727">
	<stop  offset="0" style="stop-color:#68FDAB"/>
	<stop  offset="0.9703" style="stop-color:#29E8EC"/>
	<stop  offset="1" style="stop-color:#27E7EE"/>
</linearGradient>
<path class="st0" d="M0,0h52c25.4,0,25.4,17,25.4,30v15.2c0,18-5.6,21.2-18.2,24c6.2,1.6,19.2,5.4,19.2,24.4v28.8
	c0,7.2,0.6,14.6,6,19H55.8c-3-5.4-3.8-11.4-3.8-15.6V95.6c0-9.6,0-16.4-13.6-16.4H26v62.2H0V0z M26,59h13.6c11.8,0,12-6.4,12-13.6
	V32c0-11.6-6.2-11.6-12-11.6H26V59z"/>
</svg>
