<?xml version="1.0" encoding="utf-8"?>
<!-- Generator: Adobe Illustrator 19.0.0, SVG Export Plug-In . SVG Version: 6.00 Build 0)  -->
<svg version="1.1" id="Layer_1" xmlns="http://www.w3.org/2000/svg" xmlns:xlink="http://www.w3.org/1999/xlink" x="0px" y="0px"
	 viewBox="0 0 1286 366" style="enable-background:new 0 0 1286 366;" xml:space="preserve">
<style type="text/css">
	.st0{fill:#EF4137;}
</style>
<path id="XMLID_68_" class="st0" d="M117.4,21h42c8.4,0,18.6,0,27.2,8.8C194,37.4,195,47,195,58.2v66c0,19.6-3,38-35.8,38h-41.8V21z
	 M143.4,141.6c12.2,0,14.2,0,16.4-0.4c9.4-1.4,9.4-9.6,9.4-14.8V56c0-12.6-4.2-14.4-15.6-14.4h-10.2V141.6z"/>
<path id="XMLID_71_" class="st0" d="M210.4,21h25.8v141.2h-25.8V21z"/>
<path id="XMLID_73_" class="st0" d="M301.6,66.6V53.2c0-7,0-14.8-12.2-14.8c-13.2,0-13.2,10.6-13.2,18.2V131
	c0,9.4,3.2,14.2,12.4,14.2c13,0,13-9.6,13-16.4v-22h-16.2V85.6h42.2v76.6h-22.2v-8.4c-3.8,4.2-10,11.4-25,11.4
	c-12.6,0-30.6-5.4-30.6-28.8V56c0-14.2,1.2-38,40.2-38c6.4,0,18.6,1,27,6.4c8,5.2,10.6,12.8,10.6,21.6v20.6H301.6z"/>
<path id="XMLID_75_" class="st0" d="M405.6,21h25.8v141.2h-25.8V21z"/>
<path id="XMLID_77_" class="st0" d="M436.8,21H515v20.4h-26v120.8h-26.2V41.4h-26V21z"/>
<path id="XMLID_79_" class="st0" d="M619.9,21h29.8l26.4,141.2h-26.4l-3.4-23h-24l-3.8,23h-26L619.9,21z M625.5,117.4h18l-8.6-60.6
	L625.5,117.4z"/>
<path id="XMLID_82_" class="st0" d="M746.4,21h25.8v119.8h38.4v21.4h-64.2V21z"/>
<path id="XMLID_84_" class="st0" d="M849.4,21h25.8v141.2h-25.8V21z"/>
<path id="XMLID_86_" class="st0" d="M997.4,112.4h26v16.4c0,8.2,0,16.4,12.6,16.4c12.8,0,12.8-8.4,12.8-21c0-10-2-14.2-8.8-18.8
	l-24.8-16.6c-13.2-9-16.8-18.8-16.8-33.2c0-11,1-21.6,10.2-29.2c5.2-4.4,14.8-8.4,28.4-8.4c15.2,0,36,6.2,36,30.4v14h-25.8V52.2
	c0-6.8,0-14.4-11.4-14.4c-7,0-12,2.6-12,14c0,11.8,2.6,14.4,8.2,18.2l25.6,17.4c5,3.6,10.4,8.6,13.4,13.8c3.8,6.4,3.8,10.8,3.8,22.2
	c0,12.6,0,20.4-4.6,27.8c-7.8,12.6-24,14-33.6,14c-22.2,0-39.2-8.4-39.2-32.2V112.4z"/>
<path id="XMLID_88_" class="st0" d="M104.4,307c0,10.4-2,17.6-7.6,23.2c-8.4,8.8-21.6,10-31,10C34,340.2,26.2,325,26.2,307v-79
	c0-6,0.2-16.6,7.4-24.2c5.4-5.8,16-10.8,32-10.8c12.8,0,22.8,3.4,29.4,8.8c7,5.8,9.4,13.2,9.4,26.8V307z M78.2,230.4
	c0-7.4,0-17.6-12.6-17.6c-13.4,0-13.4,10.8-13.4,18.6v71.2c0,8,0.4,17.2,13.2,17.2s12.8-9.8,12.8-16.6V230.4z"/>
<path id="XMLID_91_" class="st0" d="M207.8,196H234v105c0,7.6,0,17,12.2,17c12,0,12-9.2,12-17.2V196h26.2v109.4
	c0,18.4-7.8,34.8-38.8,34.8c-24.4,0-37.8-12.2-37.8-35.4V196z"/>
<path id="XMLID_93_" class="st0" d="M334.6,195.8h52c25.4,0,25.4,17,25.4,30V241c0,18-5.6,21.2-18.2,24c6.2,1.6,19.2,5.4,19.2,24.4
	v28.8c0,7.2,0.6,14.6,6,19h-28.6c-3-5.4-3.8-11.4-3.8-15.6v-30.2c0-9.6,0-16.4-13.6-16.4h-12.4v62.2h-26V195.8z M360.6,254.8h13.6
	c11.8,0,12-6.4,12-13.6v-13.4c0-11.6-6.2-11.6-12-11.6h-13.6V254.8z"/>
<path id="XMLID_96_" class="st0" d="M507.4,307c0,10.4-2,17.6-7.6,23.2c-8.4,8.8-21.6,10-31,10c-31.8,0-39.6-15.2-39.6-33.2v-79
	c0-6,0.2-16.6,7.4-24.2c5.4-5.8,16-10.8,32-10.8c12.8,0,22.8,3.4,29.4,8.8c7,5.8,9.4,13.2,9.4,26.8V307z M481.2,230.4
	c0-7.4,0-17.6-12.6-17.6c-13.4,0-13.4,10.8-13.4,18.6v71.2c0,8,0.4,17.2,13.2,17.2c12.8,0,12.8-9.8,12.8-16.6V230.4z"/>
<path id="XMLID_99_" class="st0" d="M587.1,196h28.4l13.4,39.8l13.6-39.8h28.4l-28.2,66.8l31.2,74.4h-28.6l-16.6-48.8l-16.8,48.8
	h-28.2l31.2-75.2L587.1,196z"/>
<path id="XMLID_101_" class="st0" d="M674.7,196h27.4l14.2,71.2l13.8-71.2h27.4l-28.2,99.4v41.8h-26.4v-43.4L674.7,196z"/>
<path id="XMLID_103_" class="st0" d="M810.9,241.6v-13.4c0-7,0-14.8-12.2-14.8c-13.2,0-13.2,10.6-13.2,18.2V306
	c0,9.4,3.2,14.2,12.4,14.2c13,0,13-9.6,13-16.4v-22h-16.2v-21.2h42.2v76.6h-22.2v-8.4c-3.8,4.2-10,11.4-25,11.4
	c-12.6,0-30.6-5.4-30.6-28.8V231c0-14.2,1.2-38,40.2-38c6.4,0,18.6,1,27,6.4c8,5.2,10.6,12.8,10.6,21.6v20.6H810.9z"/>
<path id="XMLID_105_" class="st0" d="M916.9,195.8h68.4v21.6h-42.4v33.2h39.8V272h-39.8v43.4h44.2v21.8h-70.2V195.8z"/>
<path id="XMLID_107_" class="st0" d="M1249.9,337.2h-32.8l-25.2-105.8l2.4,105.8h-24.4V196h33.4l25.4,103.6l-2.6-103.6h23.8V337.2z"
	/>
</svg>
