<?xml version="1.0" encoding="utf-8"?>
<!-- Generator: Adobe Illustrator 19.0.0, SVG Export Plug-In . SVG Version: 6.00 Build 0)  -->
<svg version="1.1" id="Layer_1" xmlns="http://www.w3.org/2000/svg" xmlns:xlink="http://www.w3.org/1999/xlink" x="0px" y="0px"
	 viewBox="34 224 680 346" style="enable-background:new 34 224 680 346;" xml:space="preserve">
<style type="text/css">
	.st0{fill:#FFFFFF;}
</style>
<path class="st0" d="M47,241.8h26v55.6h23.8v-55.6h26V383h-26v-64.6H73V383H47V241.8z"/>
<path class="st0" d="M138.2,241.6h68.4v21.6h-42.4v33.2H204v21.4h-39.8v43.4h44.2V383h-70.2C138.2,383,138.2,241.6,138.2,241.6z"/>
<path class="st0" d="M224,241.8h25.8v119.8h38.4V383H224V241.8z"/>
<path class="st0" d="M300.9,241.8h25.8v119.8h38.4V383h-64.2L300.9,241.8L300.9,241.8z"/>
<path class="st0" d="M458.9,352.8c0,10.4-2,17.6-7.6,23.2c-8.4,8.8-21.6,10-31,10c-31.8,0-39.6-15.2-39.6-33.2v-79
	c0-6,0.2-16.6,7.4-24.2c5.4-5.8,16-10.8,32-10.8c12.8,0,22.8,3.4,29.4,8.8c7,5.8,9.4,13.2,9.4,26.8L458.9,352.8L458.9,352.8z
	 M432.7,276.2c0-7.4,0-17.6-12.6-17.6c-13.4,0-13.4,10.8-13.4,18.6v71.2c0,8,0.4,17.2,13.2,17.2c12.8,0,12.8-9.8,12.8-16.6V276.2z"
	/>
<path class="st0" d="M45.7,411.6H72v143.9H45.7V411.6z"/>
<path class="st0" d="M169.2,555.4h-33.4l-25.7-107.8l2.4,107.8H87.6V411.6h34l25.9,105.6l-2.6-105.6h24.2L169.2,555.4L169.2,555.4z"
	/>
<path class="st0" d="M178.7,411.6h79.7v20.8h-26.6v123.1h-26.6V432.4h-26.5V411.6z"/>
<path class="st0" d="M269,411.4h69.7v22h-43.2v33.8h40.6V489h-40.6v44.2h45v22.2H269V411.4z"/>
<path class="st0" d="M351.3,411.4h53c25.9,0,25.9,17.3,25.9,30.6v15.5c0,18.3-5.7,21.6-18.5,24.5c6.3,1.6,19.6,5.5,19.6,24.9v29.3
	c0,7.3,0.6,14.9,6.1,19.4h-29.1c-3.1-5.5-3.9-11.6-3.9-15.9v-30.8c0-9.8,0-16.7-13.9-16.7h-12.6v63.4h-26.5V411.4H351.3z
	 M377.8,471.5h13.9c12,0,12.2-6.5,12.2-13.9V444c0-11.8-6.3-11.8-12.2-11.8h-13.9V471.5z"/>
<path class="st0" d="M526.4,555.4H493l-25.7-107.8l2.4,107.8h-24.9V411.6h34l25.9,105.6l-2.6-105.6h24.2v143.8H526.4z"/>
<path class="st0" d="M538,411.4h69.7v22h-43.2v33.8H605V489h-40.6v44.2h45v22.2H538V411.4z"/>
<path class="st0" d="M616.4,411.6h79.7v20.8h-26.5v123.1h-26.7V432.4h-26.5L616.4,411.6L616.4,411.6z"/>
</svg>
