<!-- Generator: Adobe Illustrator 19.0.0, SVG Export Plug-In  -->
<svg version="1.1"
	 xmlns="http://www.w3.org/2000/svg" xmlns:xlink="http://www.w3.org/1999/xlink" xmlns:a="http://ns.adobe.com/AdobeSVGViewerExtensions/3.0/"
	 x="0px" y="0px" width="395.9px" height="147.2px" viewBox="0 0 395.9 147.2" style="enable-background:new 0 0 395.9 147.2;"
	 xml:space="preserve">
<style type="text/css">
	.st0{fill:url(#SVGID_1_);}
	.st1{fill:url(#SVGID_2_);}
	.st2{fill:url(#SVGID_3_);}
	.st3{fill:url(#SVGID_4_);}
	.st4{fill:url(#SVGID_5_);}
	.st5{fill:url(#SVGID_6_);}
	.st6{fill:url(#SVGID_7_);}
	.st7{fill:url(#SVGID_8_);}
	.st8{fill:url(#SVGID_9_);}
	.st9{fill:url(#SVGID_10_);}
</style>
<defs>
</defs>
<linearGradient id="SVGID_1_" gradientUnits="userSpaceOnUse" x1="37.8994" y1="1.0604" x2="37.8994" y2="322.7725">
	<stop  offset="0" style="stop-color:#68FDAB"/>
	<stop  offset="0.9703" style="stop-color:#29E8EC"/>
	<stop  offset="1" style="stop-color:#27E7EE"/>
</linearGradient>
<path class="st0" d="M0,3h26v55.6h23.8V3h26v141.2h-26V79.6H26v64.6H0V3z"/>
<linearGradient id="SVGID_2_" gradientUnits="userSpaceOnUse" x1="126.2957" y1="1.0604" x2="126.2957" y2="322.7725">
	<stop  offset="0" style="stop-color:#68FDAB"/>
	<stop  offset="0.9703" style="stop-color:#29E8EC"/>
	<stop  offset="1" style="stop-color:#27E7EE"/>
</linearGradient>
<path class="st1" d="M91.2,2.8h68.4v21.6h-42.4v33.2H157V79h-39.8v43.4h44.2v21.8H91.2V2.8z"/>
<linearGradient id="SVGID_3_" gradientUnits="userSpaceOnUse" x1="209.0923" y1="1.0604" x2="209.0923" y2="322.7725">
	<stop  offset="0" style="stop-color:#68FDAB"/>
	<stop  offset="0.9703" style="stop-color:#29E8EC"/>
	<stop  offset="1" style="stop-color:#27E7EE"/>
</linearGradient>
<path class="st2" d="M177,3h25.8v119.8h38.4v21.4H177V3z"/>
<linearGradient id="SVGID_4_" gradientUnits="userSpaceOnUse" x1="280.0454" y1="1.0604" x2="280.0454" y2="322.7725">
	<stop  offset="0" style="stop-color:#68FDAB"/>
	<stop  offset="0.9703" style="stop-color:#29E8EC"/>
	<stop  offset="1" style="stop-color:#27E7EE"/>
</linearGradient>
<path class="st3" d="M247.9,3h25.8v119.8h38.4v21.4h-64.2V3z"/>
<linearGradient id="SVGID_5_" gradientUnits="userSpaceOnUse" x1="356.7983" y1="1.0604" x2="356.7983" y2="322.7725">
	<stop  offset="0" style="stop-color:#68FDAB"/>
	<stop  offset="0.9703" style="stop-color:#29E8EC"/>
	<stop  offset="1" style="stop-color:#27E7EE"/>
</linearGradient>
<path class="st4" d="M395.9,114c0,10.4-2,17.6-7.6,23.2c-8.4,8.8-21.6,10-31,10c-31.8,0-39.6-15.2-39.6-33.2V35
	c0-6,0.2-16.6,7.4-24.2c5.4-5.8,16-10.8,32-10.8c12.8,0,22.8,3.4,29.4,8.8c7,5.8,9.4,13.2,9.4,26.8V114z M369.7,37.4
	c0-7.4,0-17.6-12.6-17.6c-13.4,0-13.4,10.8-13.4,18.6v71.2c0,8,0.4,17.2,13.2,17.2s12.8-9.8,12.8-16.6V37.4z"/>
</svg>
