<?xml version="1.0" encoding="utf-8"?>
<!-- Generator: Adobe Illustrator 19.0.0, SVG Export Plug-In . SVG Version: 6.00 Build 0)  -->
<svg version="1.1" id="Layer_1" xmlns="http://www.w3.org/2000/svg" xmlns:xlink="http://www.w3.org/1999/xlink" x="0px" y="0px"
	 viewBox="99 143.6 809.3 506.4" style="enable-background:new 99 143.6 809.3 506.4;" xml:space="preserve">
<style type="text/css">
	.st0{fill:#FFFFFF;}
</style>
<path class="st0" d="M105.8,143.4l26.8,0l14.1,106.4l15.5-106.4l24.6,0l14.7,106.4l14.9-106.4l26.4,0l-27.4,141.2l-27.4,0
	l-13.3-96.2l-15.5,96.2l-27.8,0L105.8,143.4z"/>
<path class="st0" d="M249.2,143.3l68.4,0.1l0,21.6l-42.4,0l0,33.2l39.8,0l0,21.4l-39.8,0l0,43.4l44.2,0l0,21.8l-70.2-0.1
	L249.2,143.3L249.2,143.3z"/>
<path class="st0" d="M382,143.7l29.8,0L438,284.9l-26.4,0l-3.4-23l-24,0l-3.8,23l-26,0L382,143.7z M387.5,240.1l18,0l-8.5-60.6
	L387.5,240.1z"/>
<path class="st0" d="M444.2,143.5l52,0.1c25.4,0,25.4,17,25.4,30l0,15.2c0,18-5.6,21.2-18.2,24c6.2,1.6,19.2,5.4,19.2,24.4l0,28.8
	c0,7.2,0.6,14.6,6,19l-28.6,0c-3-5.4-3.8-11.4-3.8-15.6l0-30.2c0-9.6,0-16.4-13.6-16.4l-12.4,0L470,285l-26,0L444.2,143.5
	L444.2,143.5z M470.1,202.6l13.6,0c11.8,0,12-6.4,12-13.6l0-13.4c0-11.6-6.2-11.6-12-11.6l-13.6,0L470.1,202.6z"/>
<path class="st0" d="M537.2,143.6l68.4,0.1l0,21.6l-42.4,0l0,33.2l39.8,0l0,21.4l-39.8,0l0,43.4l44.2,0l0,21.8L537,285L537.2,143.6z
	"/>
<path class="st0" d="M105.1,324.4l78.2,0.1l0,20.4l-26,0l-0.1,120.8l-26.2,0l0.1-120.8l-26,0L105.1,324.4z"/>
<path class="st0" d="M191.1,324.5l26,0l-0.1,55.6l23.8,0l0.1-55.6l26,0l-0.2,141.2l-26,0l0.1-64.6l-23.8,0l-0.1,64.6l-26,0
	L191.1,324.5z"/>
<path class="st0" d="M285.3,324.4l68.4,0.1l0,21.6l-42.4,0l0,33.2l39.8,0l0,21.4l-39.8,0l0,43.4l44.2,0l0,21.8l-70.2-0.1
	L285.3,324.4z"/>
<path class="st0" d="M418.1,324.7l29.8,0L474.1,466l-26.4,0l-3.4-23l-24,0l-3.8,23l-26,0L418.1,324.7z M423.6,421.1l18,0l-8.5-60.6
	L423.6,421.1z"/>
<path class="st0" d="M530.8,370.4l0-13.4c0-7,0-14.8-12.2-14.8c-13.2,0-13.2,10.6-13.2,18.2l-0.1,74.4c0,9.4,3.2,14.2,12.4,14.2
	c13,0,13-9.6,13-16.4l0-22l-16.2,0l0-21.2l42.2,0l-0.1,76.6l-22.2,0l0-8.4c-3.8,4.2-10,11.4-25,11.4c-12.6,0-30.6-5.4-30.6-28.8
	l0.1-80.4c0-14.2,1.2-38,40.2-38c6.4,0,18.6,1,27,6.4c8,5.2,10.6,12.8,10.6,21.6l0,20.6L530.8,370.4L530.8,370.4z"/>
<path class="st0" d="M571.5,324.7l68.4,0.1l0,21.6l-42.4,0l0,33.2l39.8,0l0,21.4l-39.8,0l0,43.4l44.2,0l0,21.8l-70.2-0.1
	L571.5,324.7L571.5,324.7z"/>
<path class="st0" d="M732.1,466.2l-32.8,0l-25.1-105.8l2.3,105.8l-24.4,0l0.2-141.2l33.4,0L711,428.6L708.5,325l23.8,0L732.1,466.2z
	"/>
<path class="st0" d="M794.6,376.7l0-18c0-10.6-1.8-16.6-13.2-16.6s-12,9-12,15.4l-0.1,75.6c0,8.4,1.4,16,13,16
	c12.2,0,12.2-8.8,12.2-17.4l0-18.4l25.8,0l0,20c0,11.4,0,36-38.4,36c-7.4,0-19.2-1.4-27.4-6.8c-11.2-7.4-11.2-18.4-11.2-26.2
	l0.1-76.8c0-11.4,0.6-19.2,7-26.2c10.2-11,26.2-11.2,31.6-11.2c38.4,0,38.4,22.8,38.4,32.8l0,21.8L794.6,376.7L794.6,376.7z"/>
<path class="st0" d="M822.6,325.1l27.4,0l14.1,71.2l13.9-71.2l27.4,0l-28.3,99.4l0,41.8l-26.4,0l0-43.4L822.6,325.1z"/>
<path class="st0" d="M184,616.4c0,10.4-2,17.6-7.6,23.2c-8.4,8.8-21.6,10-31,10c-31.8,0-39.6-15.2-39.6-33.2l0.1-79
	c0-6,0.2-16.6,7.4-24.2c5.4-5.8,16-10.8,32-10.8c12.8,0,22.8,3.4,29.4,8.8c7,5.8,9.4,13.2,9.4,26.8L184,616.4L184,616.4z
	 M157.8,539.8c0-7.4,0-17.6-12.6-17.6c-13.4,0-13.4,10.8-13.4,18.6l-0.1,71.2c0,8,0.4,17.2,13.2,17.2c12.8,0,12.8-9.8,12.8-16.6
	L157.8,539.8z"/>
<path class="st0" d="M200,505.5l69,0.1l0,21.8l-42.8,0l0,35.4l40.4,0l0,21l-40.4,0l-0.1,63l-26.2,0L200,505.5L200,505.5z"/>
<path class="st0" d="M389,646.9l-32.8,0L331.1,541l2.3,105.8l-24.4,0l0.2-141.2l33.4,0l25.3,103.6l-2.5-103.6l23.8,0L389,646.9
	L389,646.9z"/>
<path class="st0" d="M483.3,616.8c0,10.4-2,17.6-7.6,23.2c-8.4,8.8-21.6,10-31,10c-31.8,0-39.6-15.2-39.6-33.2l0.1-79
	c0-6,0.2-16.6,7.4-24.2c5.4-5.8,16-10.8,32-10.8c12.8,0,22.8,3.4,29.4,8.8c7,5.8,9.4,13.2,9.4,26.8L483.3,616.8L483.3,616.8z
	 M457.1,540.1c0-7.4,0-17.6-12.6-17.6c-13.4,0-13.4,10.8-13.4,18.6l-0.1,71.2c0,8,0.4,17.2,13.2,17.2s12.8-9.8,12.8-16.6
	L457.1,540.1z"/>
<path class="st0" d="M488.8,505.8l26.8,0l14.1,106.4l15.5-106.4l24.6,0l14.7,106.4l14.9-106.4l26.4,0l-27.4,141.2l-27.4,0
	l-13.3-96.2L542.2,647l-27.8,0L488.8,505.8z"/>
</svg>
