<?xml version="1.0" encoding="utf-8"?>
<!-- Generator: Adobe Illustrator 19.0.0, SVG Export Plug-In . SVG Version: 6.00 Build 0)  -->
<svg version="1.1" id="Layer_1" xmlns="http://www.w3.org/2000/svg" xmlns:xlink="http://www.w3.org/1999/xlink" x="0px" y="0px"
	 viewBox="99 143.6 809.3 506.4" style="enable-background:new 99 143.6 809.3 506.4;" xml:space="preserve">
<style type="text/css">
	.st0{fill:#50FFA8;}
</style>
<path class="st0" d="M102.8,143.7h26.8l14.1,106.4l15.5-106.4h24.6l14.7,106.4l14.9-106.4h26.4l-27.4,141.2H185l-13.3-96.2
	l-15.5,96.2h-27.8L102.8,143.7z"/>
<path class="st0" d="M246.2,143.6l68.4,0.1v21.6h-42.4v33.2H312v21.4h-39.8v43.4h44.2v21.8l-70.2-0.1L246.2,143.6L246.2,143.6z"/>
<path class="st0" d="M379,144h29.8L435,285.2h-26.4l-3.4-23h-24l-3.8,23h-26L379,144z M384.5,240.4h18l-8.5-60.6L384.5,240.4z"/>
<path class="st0" d="M441.2,143.8l52,0.1c25.4,0,25.4,17,25.4,30v15.2c0,18-5.6,21.2-18.2,24c6.2,1.6,19.2,5.4,19.2,24.4v28.8
	c0,7.2,0.6,14.6,6,19H497c-3-5.4-3.8-11.4-3.8-15.6v-30.2c0-9.6,0-16.4-13.6-16.4h-12.4l-0.2,62.2h-26L441.2,143.8L441.2,143.8z
	 M467.1,202.9h13.6c11.8,0,12-6.4,12-13.6v-13.4c0-11.6-6.2-11.6-12-11.6h-13.6V202.9z"/>
<path class="st0" d="M534.2,143.9l68.4,0.1v21.6h-42.4v33.2H600v21.4h-39.8v43.4h44.2v21.8l-70.4-0.1L534.2,143.9z"/>
<path class="st0" d="M102.1,324.7l78.2,0.1v20.4h-26L154.2,466H128l0.1-120.8h-26L102.1,324.7z"/>
<path class="st0" d="M188.1,324.8h26l-0.1,55.6h23.8l0.1-55.6h26L263.7,466h-26l0.1-64.6H214l-0.1,64.6h-26L188.1,324.8z"/>
<path class="st0" d="M282.3,324.7l68.4,0.1v21.6h-42.4v33.2h39.8V401h-39.8v43.4h44.2v21.8l-70.2-0.1V324.7z"/>
<path class="st0" d="M415.1,325h29.8l26.2,141.3h-26.4l-3.4-23h-24l-3.8,23h-26L415.1,325z M420.6,421.4h18l-8.5-60.6L420.6,421.4z"
	/>
<path class="st0" d="M527.8,370.7v-13.4c0-7,0-14.8-12.2-14.8c-13.2,0-13.2,10.6-13.2,18.2l-0.1,74.4c0,9.4,3.2,14.2,12.4,14.2
	c13,0,13-9.6,13-16.4v-22h-16.2v-21.2h42.2l-0.1,76.6h-22.2v-8.4c-3.8,4.2-10,11.4-25,11.4c-12.6,0-30.6-5.4-30.6-28.8l0.1-80.4
	c0-14.2,1.2-38,40.2-38c6.4,0,18.6,1,27,6.4c8,5.2,10.6,12.8,10.6,21.6v20.6L527.8,370.7L527.8,370.7z"/>
<path class="st0" d="M568.5,325l68.4,0.1v21.6h-42.4v33.2h39.8v21.4h-39.8v43.4h44.2v21.8l-70.2-0.1V325L568.5,325z"/>
<path class="st0" d="M729.1,466.5h-32.8l-25.1-105.8l2.3,105.8h-24.4l0.2-141.2h33.4L708,428.9l-2.5-103.6h23.8L729.1,466.5z"/>
<path class="st0" d="M791.6,377v-18c0-10.6-1.8-16.6-13.2-16.6s-12,9-12,15.4l-0.1,75.6c0,8.4,1.4,16,13,16
	c12.2,0,12.2-8.8,12.2-17.4v-18.4h25.8v20c0,11.4,0,36-38.4,36c-7.4,0-19.2-1.4-27.4-6.8c-11.2-7.4-11.2-18.4-11.2-26.2l0.1-76.8
	c0-11.4,0.6-19.2,7-26.2c10.2-11,26.2-11.2,31.6-11.2c38.4,0,38.4,22.8,38.4,32.8V377L791.6,377L791.6,377z"/>
<path class="st0" d="M819.6,325.4H847l14.1,71.2l13.9-71.2h27.4l-28.3,99.4v41.8h-26.4v-43.4L819.6,325.4z"/>
<path class="st0" d="M181,616.7c0,10.4-2,17.6-7.6,23.2c-8.4,8.8-21.6,10-31,10c-31.8,0-39.6-15.2-39.6-33.2l0.1-79
	c0-6,0.2-16.6,7.4-24.2c5.4-5.8,16-10.8,32-10.8c12.8,0,22.8,3.4,29.4,8.8c7,5.8,9.4,13.2,9.4,26.8L181,616.7L181,616.7z
	 M154.8,540.1c0-7.4,0-17.6-12.6-17.6c-13.4,0-13.4,10.8-13.4,18.6l-0.1,71.2c0,8,0.4,17.2,13.2,17.2s12.8-9.8,12.8-16.6
	L154.8,540.1z"/>
<path class="st0" d="M197,505.8l69,0.1v21.8h-42.8v35.4h40.4v21h-40.4l-0.1,63h-26.2L197,505.8L197,505.8z"/>
<path class="st0" d="M386,647.2h-32.8l-25.1-105.9l2.3,105.8H306l0.2-141.2h33.4l25.3,103.6l-2.5-103.6h23.8L386,647.2L386,647.2z"
	/>
<path class="st0" d="M480.3,617.1c0,10.4-2,17.6-7.6,23.2c-8.4,8.8-21.6,10-31,10c-31.8,0-39.6-15.2-39.6-33.2l0.1-79
	c0-6,0.2-16.6,7.4-24.2c5.4-5.8,16-10.8,32-10.8c12.8,0,22.8,3.4,29.4,8.8c7,5.8,9.4,13.2,9.4,26.8L480.3,617.1L480.3,617.1z
	 M454.1,540.4c0-7.4,0-17.6-12.6-17.6c-13.4,0-13.4,10.8-13.4,18.6l-0.1,71.2c0,8,0.4,17.2,13.2,17.2S454,620,454,613.2L454.1,540.4
	z"/>
<path class="st0" d="M485.8,506.1h26.8l14.1,106.4l15.5-106.4h24.6l14.7,106.4l14.9-106.4h26.4l-27.4,141.2H568l-13.3-96.2
	l-15.5,96.2h-27.8L485.8,506.1z"/>
</svg>
