<?xml version="1.0" encoding="utf-8"?>
<!-- Generator: Adobe Illustrator 19.0.0, SVG Export Plug-In . SVG Version: 6.00 Build 0)  -->
<svg version="1.1" id="Layer_1" xmlns="http://www.w3.org/2000/svg" xmlns:xlink="http://www.w3.org/1999/xlink" x="0px" y="0px"
	 viewBox="99 143.6 809.3 506.4" style="enable-background:new 99 143.6 809.3 506.4;" xml:space="preserve">
<style type="text/css">
	.st0{fill:#FFFFFF;}
</style>
<path class="st0" d="M138.8,227h17.7l9.3,70.1l10.2-70.1h16.2l9.7,70.1l9.8-70.1H229L211,320h-18l-8.8-63.4L174,320h-18.3L138.8,227
	z"/>
<path class="st0" d="M339.9,226.9l45,0.1v14.2h-27.9v21.9h26.2v14.1h-26.2v28.6h29.1v14.4l-46.2-0.1L339.9,226.9L339.9,226.9z"/>
<path class="st0" d="M427.4,227.2H447l17.3,93h-17.4l-2.2-15.1h-15.8l-2.5,15.1h-17.1L427.4,227.2z M431,290.7h11.9l-5.6-39.9
	L431,290.7z"/>
<path class="st0" d="M529.6,227.1l45,0.1v14.2h-27.9v21.9h26.2v14.1h-26.2v28.6h29.1v14.4l-46.4-0.1L529.6,227.1z"/>
<path class="st0" d="M245,346.2l51.5,0.1v13.4h-17.1l-0.1,79.6h-17.3l0.1-79.6H245V346.2z"/>
<path class="st0" d="M363.7,346.2l45,0.1v14.2h-27.9v21.9H407v14.1h-26.2V425h29.1v14.4l-46.2-0.1V346.2z"/>
<path class="st0" d="M451.2,346.4h19.6l17.3,93.1h-17.4l-2.2-15.1h-15.8l-2.5,15.1H433L451.2,346.4z M454.8,409.9h11.9l-5.6-39.9
	L454.8,409.9z"/>
<path class="st0" d="M525.4,376.5v-8.8c0-4.6,0-9.7-8-9.7c-8.7,0-8.7,7-8.7,12l-0.1,49c0,6.2,2.1,9.4,8.2,9.4
	c8.6,0,8.6-6.3,8.6-10.8v-14.5h-10.7v-14h27.8l-0.1,50.4h-14.6v-5.5c-2.5,2.8-6.6,7.5-16.5,7.5c-8.3,0-20.2-3.6-20.2-19l0.1-53
	c0-9.4,0.8-25,26.5-25c4.2,0,12.2,0.7,17.8,4.2c5.3,3.4,7,8.4,7,14.2v13.6L525.4,376.5L525.4,376.5z"/>
<path class="st0" d="M658,439.6h-21.6l-16.5-69.7l1.5,69.7h-16.1l0.1-93h22l16.7,68.2l-1.6-68.2h15.7L658,439.6z"/>
<path class="st0" d="M769.3,380.6v-11.9c0-7-1.2-10.9-8.7-10.9s-7.9,5.9-7.9,10.1l-0.1,49.8c0,5.5,0.9,10.5,8.6,10.5
	c8,0,8-5.8,8-11.5v-12.1h17v13.2c0,7.5,0,23.7-25.3,23.7c-4.9,0-12.6-0.9-18-4.5c-7.4-4.9-7.4-12.1-7.4-17.3l0.1-50.6
	c0-7.5,0.4-12.6,4.6-17.3c6.7-7.2,17.3-7.4,20.8-7.4c25.3,0,25.3,15,25.3,21.6v14.4L769.3,380.6L769.3,380.6z"/>
<path class="st0" d="M815.4,346.6h18l9.3,46.9l9.2-46.9h18l-18.6,65.5v27.5h-17.4V411L815.4,346.6z"/>
<path class="st0" d="M196.4,538.5c0,6.8-1.3,11.6-5,15.3c-5.5,5.8-14.2,6.6-20.4,6.6c-20.9,0-26.1-10-26.1-21.9l0.1-52
	c0-4,0.1-10.9,4.9-15.9c3.6-3.8,10.5-7.1,21.1-7.1c8.4,0,15,2.2,19.4,5.8c4.6,3.8,6.2,8.7,6.2,17.7L196.4,538.5L196.4,538.5z
	 M179.2,488c0-4.9,0-11.6-8.3-11.6c-8.8,0-8.8,7.1-8.8,12.2l-0.1,46.9c0,5.3,0.3,11.3,8.7,11.3c8.4,0,8.4-6.5,8.4-10.9L179.2,488z"
	/>
<path class="st0" d="M307.5,465.4l45.4,0.1v14.4h-28.2v23.3h26.6V517h-26.6l-0.1,41.5h-17.3L307.5,465.4L307.5,465.4z"/>
<path class="st0" d="M432,558.6h-21.6l-16.5-69.7l1.5,69.7h-16.1l0.1-93h22l16.7,68.2l-1.6-68.2h15.7L432,558.6L432,558.6z"/>
<path class="st0" d="M665.7,465.6h17.7l9.3,70.1l10.2-70.1H719l9.7,70.1l9.8-70.1h17.4l-18,93h-18l-8.8-63.4l-10.2,63.4h-18.3
	L665.7,465.6z"/>
</svg>
