<?xml version="1.0" encoding="utf-8"?>
<!-- Generator: Adobe Illustrator 16.0.0, SVG Export Plug-In . SVG Version: 6.00 Build 0)  -->
<!DOCTYPE svg PUBLIC "-//W3C//DTD SVG 1.1//EN" "http://www.w3.org/Graphics/SVG/1.1/DTD/svg11.dtd">
<svg version="1.1" id="Layer_1" xmlns="http://www.w3.org/2000/svg" xmlns:xlink="http://www.w3.org/1999/xlink" x="0px" y="0px"
	 width="2117.118px" height="1026.02px" viewBox="0 0 2117.118 1026.02" enable-background="new 0 0 2117.118 1026.02"
	 xml:space="preserve">
<polygon opacity="0.35" fill="#231F20" enable-background="new    " points="2158.318,-87.916 2070.611,-53.035 1979.973,-89.082 
	1889.337,-53.035 1798.699,-89.082 1708.123,-53.035 1617.485,-89.082 1526.909,-53.035 1436.273,-89.082 1345.635,-53.035 
	1254.999,-89.082 1164.361,-53.035 1076.668,-87.91 1076.668,-87.867 1076.649,-87.916 988.942,-53.035 898.304,-89.082 
	807.669,-53.035 717.03,-89.082 626.454,-53.035 535.816,-89.082 445.24,-53.035 354.604,-89.082 263.966,-53.035 173.33,-89.082 
	82.692,-53.035 -5,-87.91 -5,-70.847 82.692,-35.971 173.33,-72.018 263.966,-35.971 354.604,-72.018 445.242,-35.971 
	535.818,-72.018 626.456,-35.971 717.032,-72.018 807.669,-35.971 898.304,-72.018 988.942,-35.971 1076.668,-70.86 
	1076.668,-70.847 1164.361,-35.971 1254.999,-72.018 1345.635,-35.971 1436.273,-72.018 1526.911,-35.971 1617.487,-72.018 
	1708.125,-35.971 1798.701,-72.018 1889.337,-35.971 1979.973,-72.018 2070.611,-35.971 2158.337,-70.86 2158.337,-87.867 "/>
<polygon opacity="0.35" fill="#231F20" enable-background="new    " points="2158.318,-65.101 2070.611,-30.22 1979.973,-66.267 
	1889.337,-30.22 1798.699,-66.267 1708.123,-30.22 1617.485,-66.267 1526.909,-30.22 1436.273,-66.267 1345.635,-30.22 
	1254.999,-66.267 1164.361,-30.22 1076.668,-65.095 1076.668,-65.052 1076.649,-65.101 988.942,-30.22 898.304,-66.267 
	807.669,-30.22 717.03,-66.267 626.454,-30.22 535.816,-66.267 445.24,-30.22 354.604,-66.267 263.966,-30.22 173.33,-66.267 
	82.692,-30.22 -5,-65.095 -5,-48.032 82.692,-13.156 173.33,-49.203 263.966,-13.156 354.604,-49.203 445.242,-13.156 
	535.818,-49.202 626.456,-13.156 717.032,-49.202 807.669,-13.156 898.304,-49.203 988.942,-13.156 1076.668,-48.045 
	1076.668,-48.032 1164.361,-13.156 1254.999,-49.203 1345.635,-13.156 1436.273,-49.203 1526.911,-13.156 1617.487,-49.202 
	1708.125,-13.156 1798.701,-49.202 1889.337,-13.156 1979.973,-49.203 2070.611,-13.156 2158.337,-48.045 2158.337,-65.052 "/>
<polygon opacity="0.35" fill="#231F20" enable-background="new    " points="2158.318,-42.286 2070.611,-7.405 1979.973,-43.452 
	1889.337,-7.405 1798.699,-43.452 1708.123,-7.405 1617.485,-43.452 1526.909,-7.405 1436.273,-43.452 1345.635,-7.405 
	1254.999,-43.452 1164.361,-7.405 1076.668,-42.28 1076.668,-42.237 1076.649,-42.286 988.942,-7.405 898.304,-43.452 
	807.669,-7.405 717.03,-43.452 626.454,-7.405 535.816,-43.452 445.24,-7.405 354.604,-43.452 263.966,-7.405 173.33,-43.452 
	82.692,-7.405 -5,-42.28 -5,-25.217 82.692,9.659 173.33,-26.388 263.966,9.659 354.604,-26.388 445.242,9.659 535.818,-26.387 
	626.456,9.659 717.032,-26.387 807.669,9.659 898.304,-26.388 988.942,9.659 1076.668,-25.23 1076.668,-25.217 1164.361,9.659 
	1254.999,-26.388 1345.635,9.659 1436.273,-26.388 1526.911,9.659 1617.487,-26.387 1708.125,9.659 1798.701,-26.387 
	1889.337,9.659 1979.973,-26.388 2070.611,9.659 2158.337,-25.23 2158.337,-42.237 "/>
<polygon opacity="0.35" fill="#231F20" enable-background="new    " points="2158.318,-19.471 2070.611,15.41 1979.973,-20.637 
	1889.337,15.41 1798.699,-20.637 1708.123,15.41 1617.485,-20.637 1526.909,15.41 1436.273,-20.637 1345.635,15.41 
	1254.999,-20.637 1164.361,15.41 1076.668,-19.465 1076.668,-19.422 1076.649,-19.471 988.942,15.41 898.304,-20.637 807.669,15.41 
	717.03,-20.637 626.454,15.41 535.816,-20.637 445.24,15.41 354.604,-20.637 263.966,15.41 173.33,-20.637 82.692,15.41 -5,-19.465 
	-5,-2.402 82.692,32.474 173.33,-3.573 263.966,32.474 354.604,-3.573 445.242,32.474 535.818,-3.572 626.456,32.474 
	717.032,-3.572 807.669,32.474 898.304,-3.573 988.942,32.474 1076.668,-2.415 1076.668,-2.402 1164.361,32.474 1254.999,-3.573 
	1345.635,32.474 1436.273,-3.573 1526.911,32.474 1617.487,-3.572 1708.125,32.474 1798.701,-3.572 1889.337,32.474 
	1979.973,-3.573 2070.611,32.474 2158.337,-2.415 2158.337,-19.422 "/>
<polygon opacity="0.35" fill="#231F20" enable-background="new    " points="2158.318,3.345 2070.611,38.226 1979.973,2.179 
	1889.337,38.226 1798.699,2.179 1708.123,38.226 1617.485,2.179 1526.909,38.226 1436.273,2.179 1345.635,38.226 1254.999,2.179 
	1164.361,38.226 1076.668,3.351 1076.668,3.394 1076.649,3.345 988.942,38.226 898.304,2.179 807.669,38.226 717.03,2.179 
	626.454,38.226 535.816,2.179 445.24,38.226 354.604,2.179 263.966,38.226 173.33,2.179 82.692,38.226 -5,3.351 -5,20.413 
	82.692,55.289 173.33,19.242 263.966,55.289 354.604,19.242 445.242,55.289 535.818,19.243 626.456,55.289 717.032,19.243 
	807.669,55.289 898.304,19.242 988.942,55.289 1076.668,20.4 1076.668,20.413 1164.361,55.289 1254.999,19.242 1345.635,55.289 
	1436.273,19.242 1526.911,55.289 1617.487,19.243 1708.125,55.289 1798.701,19.243 1889.337,55.289 1979.973,19.242 
	2070.611,55.289 2158.337,20.4 2158.337,3.394 "/>
<polygon opacity="0.35" fill="#231F20" enable-background="new    " points="2158.318,26.16 2070.611,61.041 1979.973,24.994 
	1889.337,61.041 1798.699,24.994 1708.123,61.041 1617.485,24.994 1526.909,61.041 1436.273,24.994 1345.635,61.041 
	1254.999,24.994 1164.361,61.041 1076.668,26.166 1076.668,26.208 1076.649,26.16 988.942,61.041 898.304,24.994 807.669,61.041 
	717.03,24.994 626.454,61.041 535.816,24.994 445.24,61.041 354.604,24.994 263.966,61.041 173.33,24.994 82.692,61.041 -5,26.166 
	-5,43.228 82.692,78.104 173.33,42.057 263.966,78.104 354.604,42.057 445.242,78.104 535.818,42.058 626.456,78.104 
	717.032,42.058 807.669,78.104 898.304,42.057 988.942,78.104 1076.668,43.215 1076.668,43.228 1164.361,78.104 1254.999,42.057 
	1345.635,78.104 1436.273,42.057 1526.911,78.104 1617.487,42.058 1708.125,78.104 1798.701,42.058 1889.337,78.104 
	1979.973,42.057 2070.611,78.104 2158.337,43.215 2158.337,26.208 "/>
<polygon opacity="0.35" fill="#231F20" enable-background="new    " points="2158.318,48.975 2070.611,83.855 1979.973,47.809 
	1889.337,83.855 1798.699,47.809 1708.123,83.855 1617.485,47.809 1526.909,83.855 1436.273,47.809 1345.635,83.855 
	1254.999,47.809 1164.361,83.855 1076.668,48.98 1076.668,49.023 1076.649,48.975 988.942,83.855 898.304,47.809 807.669,83.855 
	717.03,47.809 626.454,83.855 535.816,47.809 445.24,83.855 354.604,47.809 263.966,83.855 173.33,47.809 82.692,83.855 -5,48.98 
	-5,66.043 82.692,100.919 173.33,64.872 263.966,100.919 354.604,64.872 445.242,100.919 535.818,64.873 626.456,100.919 
	717.032,64.873 807.669,100.919 898.304,64.872 988.942,100.919 1076.668,66.03 1076.668,66.043 1164.361,100.919 1254.999,64.872 
	1345.635,100.919 1436.273,64.872 1526.911,100.919 1617.487,64.873 1708.125,100.919 1798.701,64.873 1889.337,100.919 
	1979.973,64.872 2070.611,100.919 2158.337,66.03 2158.337,49.023 "/>
<polygon opacity="0.35" fill="#231F20" enable-background="new    " points="2158.318,71.79 2070.611,106.67 1979.973,70.624 
	1889.337,106.67 1798.699,70.624 1708.123,106.67 1617.485,70.624 1526.909,106.67 1436.273,70.624 1345.635,106.67 
	1254.999,70.624 1164.361,106.67 1076.668,71.795 1076.668,71.838 1076.649,71.79 988.942,106.67 898.304,70.624 807.669,106.67 
	717.03,70.624 626.454,106.67 535.816,70.624 445.24,106.67 354.604,70.624 263.966,106.67 173.33,70.624 82.692,106.67 -5,71.795 
	-5,88.858 82.692,123.734 173.33,87.687 263.966,123.734 354.604,87.687 445.242,123.734 535.818,87.688 626.456,123.734 
	717.032,87.688 807.669,123.734 898.304,87.687 988.942,123.734 1076.668,88.845 1076.668,88.858 1164.361,123.734 1254.999,87.687 
	1345.635,123.734 1436.273,87.687 1526.911,123.734 1617.487,87.688 1708.125,123.734 1798.701,87.688 1889.337,123.734 
	1979.973,87.687 2070.611,123.734 2158.337,88.845 2158.337,71.838 "/>
<polygon opacity="0.35" fill="#231F20" enable-background="new    " points="2158.318,94.604 2070.611,129.485 1979.973,93.438 
	1889.337,129.485 1798.699,93.438 1708.123,129.485 1617.485,93.438 1526.909,129.485 1436.273,93.438 1345.635,129.485 
	1254.999,93.438 1164.361,129.485 1076.668,94.61 1076.668,94.653 1076.649,94.604 988.942,129.485 898.304,93.438 807.669,129.485 
	717.03,93.438 626.454,129.485 535.816,93.438 445.24,129.485 354.604,93.438 263.966,129.485 173.33,93.438 82.692,129.485 
	-5,94.61 -5,111.673 82.692,146.549 173.33,110.502 263.966,146.549 354.604,110.502 445.242,146.549 535.818,110.503 
	626.456,146.549 717.032,110.503 807.669,146.549 898.304,110.502 988.942,146.549 1076.668,111.66 1076.668,111.673 
	1164.361,146.549 1254.999,110.502 1345.635,146.549 1436.273,110.502 1526.911,146.549 1617.487,110.503 1708.125,146.549 
	1798.701,110.503 1889.337,146.549 1979.973,110.502 2070.611,146.549 2158.337,111.66 2158.337,94.653 "/>
<polygon opacity="0.35" fill="#231F20" enable-background="new    " points="2158.318,117.419 2070.611,152.3 1979.973,116.253 
	1889.337,152.3 1798.699,116.253 1708.123,152.3 1617.485,116.253 1526.909,152.3 1436.273,116.253 1345.635,152.3 
	1254.999,116.253 1164.361,152.3 1076.668,117.425 1076.668,117.468 1076.649,117.419 988.942,152.3 898.304,116.253 807.669,152.3 
	717.03,116.253 626.454,152.3 535.816,116.253 445.24,152.3 354.604,116.253 263.966,152.3 173.33,116.253 82.692,152.3 -5,117.425 
	-5,134.488 82.692,169.364 173.33,133.317 263.966,169.364 354.604,133.317 445.242,169.364 535.818,133.318 626.456,169.364 
	717.032,133.318 807.669,169.364 898.304,133.317 988.942,169.364 1076.668,134.475 1076.668,134.488 1164.361,169.364 
	1254.999,133.317 1345.635,169.364 1436.273,133.317 1526.911,169.364 1617.487,133.318 1708.125,169.364 1798.701,133.318 
	1889.337,169.364 1979.973,133.317 2070.611,169.364 2158.337,134.475 2158.337,117.468 "/>
<polygon opacity="0.35" fill="#231F20" enable-background="new    " points="2158.318,140.234 2070.611,175.115 1979.973,139.068 
	1889.337,175.115 1798.699,139.068 1708.123,175.115 1617.485,139.068 1526.909,175.115 1436.273,139.068 1345.635,175.115 
	1254.999,139.068 1164.361,175.115 1076.668,140.24 1076.668,140.283 1076.649,140.234 988.942,175.115 898.304,139.068 
	807.669,175.115 717.03,139.068 626.454,175.115 535.816,139.068 445.24,175.115 354.604,139.068 263.966,175.115 173.33,139.068 
	82.692,175.115 -5,140.24 -5,157.303 82.692,192.179 173.33,156.132 263.966,192.179 354.604,156.132 445.242,192.179 
	535.818,156.133 626.456,192.179 717.032,156.133 807.669,192.179 898.304,156.132 988.942,192.179 1076.668,157.29 
	1076.668,157.303 1164.361,192.179 1254.999,156.132 1345.635,192.179 1436.273,156.132 1526.911,192.179 1617.487,156.133 
	1708.125,192.179 1798.701,156.133 1889.337,192.179 1979.973,156.132 2070.611,192.179 2158.337,157.29 2158.337,140.283 "/>
<polygon opacity="0.35" fill="#231F20" enable-background="new    " points="2158.318,163.05 2070.611,197.931 1979.973,161.884 
	1889.337,197.931 1798.699,161.884 1708.123,197.931 1617.485,161.884 1526.909,197.931 1436.273,161.884 1345.635,197.931 
	1254.999,161.884 1164.361,197.931 1076.668,163.056 1076.668,163.099 1076.649,163.05 988.942,197.931 898.304,161.884 
	807.669,197.931 717.03,161.884 626.454,197.931 535.816,161.884 445.24,197.931 354.604,161.884 263.966,197.931 173.33,161.884 
	82.692,197.931 -5,163.056 -5,180.118 82.692,214.994 173.33,178.947 263.966,214.994 354.604,178.947 445.242,214.994 
	535.818,178.948 626.456,214.994 717.032,178.948 807.669,214.994 898.304,178.947 988.942,214.994 1076.668,180.105 
	1076.668,180.118 1164.361,214.994 1254.999,178.947 1345.635,214.994 1436.273,178.947 1526.911,214.994 1617.487,178.948 
	1708.125,214.994 1798.701,178.948 1889.337,214.994 1979.973,178.947 2070.611,214.994 2158.337,180.105 2158.337,163.099 "/>
<polygon opacity="0.35" fill="#231F20" enable-background="new    " points="2158.318,185.865 2070.611,220.746 1979.973,184.699 
	1889.337,220.746 1798.699,184.699 1708.123,220.746 1617.485,184.699 1526.909,220.746 1436.273,184.699 1345.635,220.746 
	1254.999,184.699 1164.361,220.746 1076.668,185.871 1076.668,185.914 1076.649,185.865 988.942,220.746 898.304,184.699 
	807.669,220.746 717.03,184.699 626.454,220.746 535.816,184.699 445.24,220.746 354.604,184.699 263.966,220.746 173.33,184.699 
	82.692,220.746 -5,185.871 -5,202.933 82.692,237.809 173.33,201.762 263.966,237.809 354.604,201.762 445.242,237.809 
	535.818,201.763 626.456,237.809 717.032,201.763 807.669,237.809 898.304,201.762 988.942,237.809 1076.668,202.92 
	1076.668,202.933 1164.361,237.809 1254.999,201.762 1345.635,237.809 1436.273,201.762 1526.911,237.809 1617.487,201.763 
	1708.125,237.809 1798.701,201.763 1889.337,237.809 1979.973,201.762 2070.611,237.809 2158.337,202.92 2158.337,185.914 "/>
<polygon opacity="0.35" fill="#231F20" enable-background="new    " points="2158.318,208.68 2070.611,243.561 1979.973,207.514 
	1889.337,243.561 1798.699,207.514 1708.123,243.561 1617.485,207.514 1526.909,243.561 1436.273,207.514 1345.635,243.561 
	1254.999,207.514 1164.361,243.561 1076.668,208.686 1076.668,208.729 1076.649,208.68 988.942,243.561 898.304,207.514 
	807.669,243.561 717.03,207.514 626.454,243.561 535.816,207.514 445.24,243.561 354.604,207.514 263.966,243.561 173.33,207.514 
	82.692,243.561 -5,208.686 -5,225.748 82.692,260.624 173.33,224.577 263.966,260.624 354.604,224.577 445.242,260.624 
	535.818,224.578 626.456,260.624 717.032,224.578 807.669,260.624 898.304,224.577 988.942,260.624 1076.668,225.735 
	1076.668,225.748 1164.361,260.624 1254.999,224.577 1345.635,260.624 1436.273,224.577 1526.911,260.624 1617.487,224.578 
	1708.125,260.624 1798.701,224.578 1889.337,260.624 1979.973,224.577 2070.611,260.624 2158.337,225.735 2158.337,208.729 "/>
<polygon opacity="0.35" fill="#231F20" enable-background="new    " points="2158.318,231.495 2070.611,266.375 1979.973,230.329 
	1889.337,266.375 1798.699,230.329 1708.123,266.375 1617.485,230.329 1526.909,266.375 1436.273,230.329 1345.635,266.375 
	1254.999,230.329 1164.361,266.375 1076.668,231.5 1076.668,231.543 1076.649,231.495 988.942,266.375 898.304,230.329 
	807.669,266.375 717.03,230.329 626.454,266.375 535.816,230.329 445.24,266.375 354.604,230.329 263.966,266.375 173.33,230.329 
	82.692,266.375 -5,231.5 -5,248.563 82.692,283.439 173.33,247.392 263.966,283.439 354.604,247.392 445.242,283.439 
	535.818,247.393 626.456,283.439 717.032,247.393 807.669,283.439 898.304,247.392 988.942,283.439 1076.668,248.55 
	1076.668,248.563 1164.361,283.439 1254.999,247.392 1345.635,283.439 1436.273,247.392 1526.911,283.439 1617.487,247.393 
	1708.125,283.439 1798.701,247.393 1889.337,283.439 1979.973,247.392 2070.611,283.439 2158.337,248.55 2158.337,231.543 "/>
<polygon opacity="0.35" fill="#231F20" enable-background="new    " points="2158.318,254.31 2070.611,289.19 1979.973,253.144 
	1889.337,289.19 1798.699,253.144 1708.123,289.19 1617.485,253.144 1526.909,289.19 1436.273,253.144 1345.635,289.19 
	1254.999,253.144 1164.361,289.19 1076.668,254.315 1076.668,254.358 1076.649,254.31 988.942,289.19 898.304,253.144 
	807.669,289.19 717.03,253.144 626.454,289.19 535.816,253.144 445.24,289.19 354.604,253.144 263.966,289.19 173.33,253.144 
	82.692,289.19 -5,254.315 -5,271.378 82.692,306.254 173.33,270.207 263.966,306.254 354.604,270.207 445.242,306.254 
	535.818,270.208 626.456,306.254 717.032,270.208 807.669,306.254 898.304,270.207 988.942,306.254 1076.668,271.365 
	1076.668,271.378 1164.361,306.254 1254.999,270.207 1345.635,306.254 1436.273,270.207 1526.911,306.254 1617.487,270.208 
	1708.125,306.254 1798.701,270.208 1889.337,306.254 1979.973,270.207 2070.611,306.254 2158.337,271.365 2158.337,254.358 "/>
<polygon opacity="0.35" fill="#231F20" enable-background="new    " points="2158.318,277.125 2070.611,312.005 1979.973,275.958 
	1889.337,312.005 1798.699,275.958 1708.123,312.005 1617.485,275.958 1526.909,312.005 1436.273,275.958 1345.635,312.005 
	1254.999,275.958 1164.361,312.005 1076.668,277.13 1076.668,277.173 1076.649,277.125 988.942,312.005 898.304,275.958 
	807.669,312.005 717.03,275.958 626.454,312.005 535.816,275.958 445.24,312.005 354.604,275.958 263.966,312.005 173.33,275.958 
	82.692,312.005 -5,277.13 -5,294.193 82.692,329.069 173.33,293.022 263.966,329.069 354.604,293.022 445.242,329.069 
	535.818,293.023 626.456,329.069 717.032,293.023 807.669,329.069 898.304,293.022 988.942,329.069 1076.668,294.18 
	1076.668,294.193 1164.361,329.069 1254.999,293.022 1345.635,329.069 1436.273,293.022 1526.911,329.069 1617.487,293.023 
	1708.125,329.069 1798.701,293.023 1889.337,329.069 1979.973,293.022 2070.611,329.069 2158.337,294.18 2158.337,277.173 "/>
<polygon opacity="0.35" fill="#231F20" enable-background="new    " points="2158.318,299.939 2070.611,334.82 1979.973,298.773 
	1889.337,334.82 1798.699,298.773 1708.123,334.82 1617.485,298.773 1526.909,334.82 1436.273,298.773 1345.635,334.82 
	1254.999,298.773 1164.361,334.82 1076.668,299.945 1076.668,299.988 1076.649,299.939 988.942,334.82 898.304,298.773 
	807.669,334.82 717.03,298.773 626.454,334.82 535.816,298.773 445.24,334.82 354.604,298.773 263.966,334.82 173.33,298.773 
	82.692,334.82 -5,299.945 -5,317.008 82.692,351.884 173.33,315.837 263.966,351.884 354.604,315.837 445.242,351.884 
	535.818,315.838 626.456,351.884 717.032,315.838 807.669,351.884 898.304,315.837 988.942,351.884 1076.668,316.995 
	1076.668,317.008 1164.361,351.884 1254.999,315.837 1345.635,351.884 1436.273,315.837 1526.911,351.884 1617.487,315.838 
	1708.125,351.884 1798.701,315.838 1889.337,351.884 1979.973,315.837 2070.611,351.884 2158.337,316.995 2158.337,299.988 "/>
<polygon opacity="0.35" fill="#231F20" enable-background="new    " points="2158.318,322.755 2070.611,357.636 1979.973,321.589 
	1889.337,357.636 1798.699,321.589 1708.123,357.636 1617.485,321.589 1526.909,357.636 1436.273,321.589 1345.635,357.636 
	1254.999,321.589 1164.361,357.636 1076.668,322.761 1076.668,322.804 1076.649,322.755 988.942,357.636 898.304,321.589 
	807.669,357.636 717.03,321.589 626.454,357.636 535.816,321.589 445.24,357.636 354.604,321.589 263.966,357.636 173.33,321.589 
	82.692,357.636 -5,322.761 -5,339.823 82.692,374.699 173.33,338.652 263.966,374.699 354.604,338.652 445.242,374.699 
	535.818,338.653 626.456,374.699 717.032,338.653 807.669,374.699 898.304,338.652 988.942,374.699 1076.668,339.811 
	1076.668,339.823 1164.361,374.699 1254.999,338.652 1345.635,374.699 1436.273,338.652 1526.911,374.699 1617.487,338.653 
	1708.125,374.699 1798.701,338.653 1889.337,374.699 1979.973,338.652 2070.611,374.699 2158.337,339.811 2158.337,322.804 "/>
<polygon opacity="0.35" fill="#231F20" enable-background="new    " points="2158.318,345.57 2070.611,380.451 1979.973,344.404 
	1889.337,380.451 1798.699,344.404 1708.123,380.451 1617.485,344.404 1526.909,380.451 1436.273,344.404 1345.635,380.451 
	1254.999,344.404 1164.361,380.451 1076.668,345.576 1076.668,345.619 1076.649,345.57 988.942,380.451 898.304,344.404 
	807.669,380.451 717.03,344.404 626.454,380.451 535.816,344.404 445.24,380.451 354.604,344.404 263.966,380.451 173.33,344.404 
	82.692,380.451 -5,345.576 -5,362.638 82.692,397.514 173.33,361.467 263.966,397.514 354.604,361.467 445.242,397.514 
	535.818,361.468 626.456,397.514 717.032,361.468 807.669,397.514 898.304,361.467 988.942,397.514 1076.668,362.625 
	1076.668,362.638 1164.361,397.514 1254.999,361.467 1345.635,397.514 1436.273,361.467 1526.911,397.514 1617.487,361.468 
	1708.125,397.514 1798.701,361.468 1889.337,397.514 1979.973,361.467 2070.611,397.514 2158.337,362.625 2158.337,345.619 "/>
<polygon opacity="0.35" fill="#231F20" enable-background="new    " points="2158.318,368.385 2070.611,403.266 1979.973,367.219 
	1889.337,403.266 1798.699,367.219 1708.123,403.266 1617.485,367.219 1526.909,403.266 1436.273,367.219 1345.635,403.266 
	1254.999,367.219 1164.361,403.266 1076.668,368.391 1076.668,368.434 1076.649,368.385 988.942,403.266 898.304,367.219 
	807.669,403.266 717.03,367.219 626.454,403.266 535.816,367.219 445.24,403.266 354.604,367.219 263.966,403.266 173.33,367.219 
	82.692,403.266 -5,368.391 -5,385.453 82.692,420.329 173.33,384.282 263.966,420.329 354.604,384.282 445.242,420.329 
	535.818,384.283 626.456,420.329 717.032,384.283 807.669,420.329 898.304,384.282 988.942,420.329 1076.668,385.44 
	1076.668,385.453 1164.361,420.329 1254.999,384.282 1345.635,420.329 1436.273,384.282 1526.911,420.329 1617.487,384.283 
	1708.125,420.329 1798.701,384.283 1889.337,420.329 1979.973,384.282 2070.611,420.329 2158.337,385.44 2158.337,368.434 "/>
<polygon opacity="0.35" fill="#231F20" enable-background="new    " points="2158.318,391.2 2070.611,426.081 1979.973,390.034 
	1889.337,426.081 1798.699,390.034 1708.123,426.081 1617.485,390.034 1526.909,426.081 1436.273,390.034 1345.635,426.081 
	1254.999,390.034 1164.361,426.081 1076.668,391.206 1076.668,391.249 1076.649,391.2 988.942,426.081 898.304,390.034 
	807.669,426.081 717.03,390.034 626.454,426.081 535.816,390.034 445.24,426.081 354.604,390.034 263.966,426.081 173.33,390.034 
	82.692,426.081 -5,391.206 -5,408.268 82.692,443.144 173.33,407.097 263.966,443.144 354.604,407.097 445.242,443.144 
	535.818,407.098 626.456,443.144 717.032,407.098 807.669,443.144 898.304,407.097 988.942,443.144 1076.668,408.255 
	1076.668,408.268 1164.361,443.144 1254.999,407.097 1345.635,443.144 1436.273,407.097 1526.911,443.144 1617.487,407.098 
	1708.125,443.144 1798.701,407.098 1889.337,443.144 1979.973,407.097 2070.611,443.144 2158.337,408.255 2158.337,391.249 "/>
<polygon opacity="0.35" fill="#231F20" enable-background="new    " points="2158.318,414.015 2070.611,448.896 1979.973,412.849 
	1889.337,448.896 1798.699,412.849 1708.123,448.896 1617.485,412.849 1526.909,448.896 1436.273,412.849 1345.635,448.896 
	1254.999,412.849 1164.361,448.896 1076.668,414.021 1076.668,414.062 1076.649,414.015 988.942,448.896 898.304,412.849 
	807.669,448.896 717.03,412.849 626.454,448.896 535.816,412.849 445.24,448.896 354.604,412.849 263.966,448.896 173.33,412.849 
	82.692,448.896 -5,414.021 -5,431.083 82.692,465.959 173.33,429.912 263.966,465.959 354.604,429.912 445.242,465.959 
	535.818,429.913 626.456,465.959 717.032,429.913 807.669,465.959 898.304,429.912 988.942,465.959 1076.668,431.07 
	1076.668,431.083 1164.361,465.959 1254.999,429.912 1345.635,465.959 1436.273,429.912 1526.911,465.959 1617.487,429.913 
	1708.125,465.959 1798.701,429.913 1889.337,465.959 1979.973,429.912 2070.611,465.959 2158.337,431.07 2158.337,414.062 "/>
<polygon opacity="0.35" fill="#231F20" enable-background="new    " points="2158.318,436.83 2070.611,471.71 1979.973,435.664 
	1889.337,471.71 1798.699,435.664 1708.123,471.71 1617.485,435.664 1526.909,471.71 1436.273,435.664 1345.635,471.71 
	1254.999,435.664 1164.361,471.71 1076.668,436.835 1076.668,436.878 1076.649,436.83 988.942,471.71 898.304,435.664 
	807.669,471.71 717.03,435.664 626.454,471.71 535.816,435.664 445.24,471.71 354.604,435.664 263.966,471.71 173.33,435.664 
	82.692,471.71 -5,436.835 -5,453.898 82.692,488.774 173.33,452.727 263.966,488.774 354.604,452.727 445.242,488.774 
	535.818,452.728 626.456,488.774 717.032,452.728 807.669,488.774 898.304,452.727 988.942,488.774 1076.668,453.885 
	1076.668,453.898 1164.361,488.774 1254.999,452.727 1345.635,488.774 1436.273,452.727 1526.911,488.774 1617.487,452.728 
	1708.125,488.774 1798.701,452.728 1889.337,488.774 1979.973,452.727 2070.611,488.774 2158.337,453.885 2158.337,436.878 "/>
<polygon opacity="0.35" fill="#231F20" enable-background="new    " points="2158.318,459.645 2070.611,494.525 1979.973,458.479 
	1889.337,494.525 1798.699,458.479 1708.123,494.525 1617.485,458.479 1526.909,494.525 1436.273,458.479 1345.635,494.525 
	1254.999,458.479 1164.361,494.525 1076.668,459.65 1076.668,459.693 1076.649,459.645 988.942,494.525 898.304,458.479 
	807.669,494.525 717.03,458.479 626.454,494.525 535.816,458.479 445.24,494.525 354.604,458.479 263.966,494.525 173.33,458.479 
	82.692,494.525 -5,459.65 -5,476.713 82.692,511.589 173.33,475.542 263.966,511.589 354.604,475.542 445.242,511.589 
	535.818,475.543 626.456,511.589 717.032,475.543 807.669,511.589 898.304,475.542 988.942,511.589 1076.668,476.7 
	1076.668,476.713 1164.361,511.589 1254.999,475.542 1345.635,511.589 1436.273,475.542 1526.911,511.589 1617.487,475.543 
	1708.125,511.589 1798.701,475.543 1889.337,511.589 1979.973,475.542 2070.611,511.589 2158.337,476.7 2158.337,459.693 "/>
<polygon opacity="0.35" fill="#231F20" enable-background="new    " points="2158.318,482.46 2070.611,517.341 1979.973,481.294 
	1889.337,517.341 1798.699,481.294 1708.123,517.341 1617.485,481.294 1526.909,517.341 1436.273,481.294 1345.635,517.341 
	1254.999,481.294 1164.361,517.341 1076.668,482.466 1076.668,482.509 1076.649,482.46 988.942,517.341 898.304,481.294 
	807.669,517.341 717.03,481.294 626.454,517.341 535.816,481.294 445.24,517.341 354.604,481.294 263.966,517.341 173.33,481.294 
	82.692,517.341 -5,482.466 -5,499.528 82.692,534.404 173.33,498.357 263.966,534.404 354.604,498.357 445.242,534.404 
	535.818,498.358 626.456,534.404 717.032,498.358 807.669,534.404 898.304,498.357 988.942,534.404 1076.668,499.516 
	1076.668,499.528 1164.361,534.404 1254.999,498.357 1345.635,534.404 1436.273,498.357 1526.911,534.404 1617.487,498.358 
	1708.125,534.404 1798.701,498.358 1889.337,534.404 1979.973,498.357 2070.611,534.404 2158.337,499.516 2158.337,482.509 "/>
<polygon opacity="0.35" fill="#231F20" enable-background="new    " points="2158.318,505.275 2070.611,540.155 1979.973,504.109 
	1889.337,540.155 1798.699,504.109 1708.123,540.155 1617.485,504.109 1526.909,540.155 1436.273,504.109 1345.635,540.155 
	1254.999,504.109 1164.361,540.155 1076.668,505.281 1076.668,505.324 1076.649,505.275 988.942,540.155 898.304,504.109 
	807.669,540.155 717.03,504.109 626.454,540.155 535.816,504.109 445.24,540.155 354.604,504.109 263.966,540.155 173.33,504.109 
	82.692,540.155 -5,505.281 -5,522.343 82.692,557.219 173.33,521.172 263.966,557.219 354.604,521.172 445.242,557.219 
	535.818,521.173 626.456,557.219 717.032,521.173 807.669,557.219 898.304,521.172 988.942,557.219 1076.668,522.33 
	1076.668,522.343 1164.361,557.219 1254.999,521.172 1345.635,557.219 1436.273,521.172 1526.911,557.219 1617.487,521.173 
	1708.125,557.219 1798.701,521.173 1889.337,557.219 1979.973,521.172 2070.611,557.219 2158.337,522.33 2158.337,505.324 "/>
<polygon opacity="0.35" fill="#231F20" enable-background="new    " points="2158.318,528.09 2070.611,562.971 1979.973,526.924 
	1889.337,562.971 1798.699,526.924 1708.123,562.971 1617.485,526.924 1526.909,562.971 1436.273,526.924 1345.635,562.971 
	1254.999,526.924 1164.361,562.971 1076.668,528.096 1076.668,528.139 1076.649,528.09 988.942,562.971 898.304,526.924 
	807.669,562.971 717.03,526.924 626.454,562.971 535.816,526.924 445.24,562.971 354.604,526.924 263.966,562.971 173.33,526.924 
	82.692,562.971 -5,528.096 -5,545.158 82.692,580.033 173.33,543.987 263.966,580.033 354.604,543.987 445.242,580.033 
	535.818,543.988 626.456,580.033 717.032,543.988 807.669,580.033 898.304,543.987 988.942,580.033 1076.668,545.146 
	1076.668,545.158 1164.361,580.033 1254.999,543.987 1345.635,580.033 1436.273,543.987 1526.911,580.033 1617.487,543.988 
	1708.125,580.033 1798.701,543.988 1889.337,580.033 1979.973,543.987 2070.611,580.033 2158.337,545.146 2158.337,528.139 "/>
<polygon opacity="0.35" fill="#231F20" enable-background="new    " points="2158.318,550.904 2070.611,585.785 1979.973,549.738 
	1889.337,585.785 1798.699,549.738 1708.123,585.785 1617.485,549.738 1526.909,585.785 1436.273,549.738 1345.635,585.785 
	1254.999,549.738 1164.361,585.785 1076.668,550.91 1076.668,550.953 1076.649,550.904 988.942,585.785 898.304,549.738 
	807.669,585.785 717.03,549.738 626.454,585.785 535.816,549.738 445.24,585.785 354.604,549.738 263.966,585.785 173.33,549.738 
	82.692,585.785 -5,550.91 -5,567.973 82.692,602.849 173.33,566.802 263.966,602.849 354.604,566.802 445.242,602.849 
	535.818,566.803 626.456,602.849 717.032,566.803 807.669,602.849 898.304,566.802 988.942,602.849 1076.668,567.96 
	1076.668,567.973 1164.361,602.849 1254.999,566.802 1345.635,602.849 1436.273,566.802 1526.911,602.849 1617.487,566.803 
	1708.125,602.849 1798.701,566.803 1889.337,602.849 1979.973,566.802 2070.611,602.849 2158.337,567.96 2158.337,550.953 "/>
<polygon opacity="0.35" fill="#231F20" enable-background="new    " points="2158.318,573.72 2070.611,608.601 1979.973,572.554 
	1889.337,608.601 1798.699,572.554 1708.123,608.601 1617.485,572.554 1526.909,608.601 1436.273,572.554 1345.635,608.601 
	1254.999,572.554 1164.361,608.601 1076.668,573.726 1076.668,573.769 1076.649,573.72 988.942,608.601 898.304,572.554 
	807.669,608.601 717.03,572.554 626.454,608.601 535.816,572.554 445.24,608.601 354.604,572.554 263.966,608.601 173.33,572.554 
	82.692,608.601 -5,573.726 -5,590.788 82.692,625.664 173.33,589.617 263.966,625.664 354.604,589.617 445.242,625.664 
	535.818,589.618 626.456,625.664 717.032,589.618 807.669,625.664 898.304,589.617 988.942,625.664 1076.668,590.775 
	1076.668,590.788 1164.361,625.664 1254.999,589.617 1345.635,625.664 1436.273,589.617 1526.911,625.664 1617.487,589.618 
	1708.125,625.664 1798.701,589.618 1889.337,625.664 1979.973,589.617 2070.611,625.664 2158.337,590.775 2158.337,573.769 "/>
<polygon opacity="0.35" fill="#231F20" enable-background="new    " points="2158.318,596.535 2070.611,631.416 1979.973,595.369 
	1889.337,631.416 1798.699,595.369 1708.123,631.416 1617.485,595.369 1526.909,631.416 1436.273,595.369 1345.635,631.416 
	1254.999,595.369 1164.361,631.416 1076.668,596.541 1076.668,596.584 1076.649,596.535 988.942,631.416 898.304,595.369 
	807.669,631.416 717.03,595.369 626.454,631.416 535.816,595.369 445.24,631.416 354.604,595.369 263.966,631.416 173.33,595.369 
	82.692,631.416 -5,596.541 -5,613.604 82.692,648.479 173.33,612.433 263.966,648.479 354.604,612.433 445.242,648.479 
	535.818,612.434 626.456,648.479 717.032,612.434 807.669,648.479 898.304,612.433 988.942,648.479 1076.668,613.591 
	1076.668,613.604 1164.361,648.479 1254.999,612.433 1345.635,648.479 1436.273,612.433 1526.911,648.479 1617.487,612.434 
	1708.125,648.479 1798.701,612.434 1889.337,648.479 1979.973,612.433 2070.611,648.479 2158.337,613.591 2158.337,596.584 "/>
<polygon opacity="0.35" fill="#231F20" enable-background="new    " points="2158.318,619.35 2070.611,654.23 1979.973,618.184 
	1889.337,654.23 1798.699,618.184 1708.123,654.23 1617.485,618.184 1526.909,654.23 1436.273,618.184 1345.635,654.23 
	1254.999,618.184 1164.361,654.23 1076.668,619.355 1076.668,619.398 1076.649,619.35 988.942,654.23 898.304,618.184 
	807.669,654.23 717.03,618.184 626.454,654.23 535.816,618.184 445.24,654.23 354.604,618.184 263.966,654.23 173.33,618.184 
	82.692,654.23 -5,619.355 -5,636.418 82.692,671.295 173.33,635.248 263.966,671.295 354.604,635.248 445.242,671.295 
	535.818,635.248 626.456,671.295 717.032,635.248 807.669,671.295 898.304,635.248 988.942,671.295 1076.668,636.406 
	1076.668,636.418 1164.361,671.295 1254.999,635.248 1345.635,671.295 1436.273,635.248 1526.911,671.295 1617.487,635.248 
	1708.125,671.295 1798.701,635.248 1889.337,671.295 1979.973,635.248 2070.611,671.295 2158.337,636.406 2158.337,619.398 "/>
<polygon opacity="0.35" fill="#231F20" enable-background="new    " points="2158.318,642.165 2070.611,677.046 1979.973,640.999 
	1889.337,677.046 1798.699,640.999 1708.123,677.046 1617.485,640.999 1526.909,677.046 1436.273,640.999 1345.635,677.046 
	1254.999,640.999 1164.361,677.046 1076.668,642.171 1076.668,642.214 1076.649,642.165 988.942,677.046 898.304,640.999 
	807.669,677.046 717.03,640.999 626.454,677.046 535.816,640.999 445.24,677.046 354.604,640.999 263.966,677.046 173.33,640.999 
	82.692,677.046 -5,642.171 -5,659.233 82.692,694.109 173.33,658.062 263.966,694.109 354.604,658.062 445.242,694.109 
	535.818,658.062 626.456,694.109 717.032,658.062 807.669,694.109 898.304,658.062 988.942,694.109 1076.668,659.221 
	1076.668,659.233 1164.361,694.109 1254.999,658.062 1345.635,694.109 1436.273,658.062 1526.911,694.109 1617.487,658.062 
	1708.125,694.109 1798.701,658.062 1889.337,694.109 1979.973,658.062 2070.611,694.109 2158.337,659.221 2158.337,642.214 "/>
<polygon opacity="0.35" fill="#231F20" enable-background="new    " points="2158.318,664.979 2070.611,699.86 1979.973,663.812 
	1889.337,699.86 1798.699,663.812 1708.123,699.86 1617.485,663.812 1526.909,699.86 1436.273,663.812 1345.635,699.86 
	1254.999,663.812 1164.361,699.86 1076.668,664.985 1076.668,665.028 1076.649,664.979 988.942,699.86 898.304,663.812 
	807.669,699.86 717.03,663.812 626.454,699.86 535.816,663.812 445.24,699.86 354.604,663.812 263.966,699.86 173.33,663.812 
	82.692,699.86 -5,664.985 -5,682.048 82.692,716.924 173.33,680.877 263.966,716.924 354.604,680.877 445.242,716.924 
	535.818,680.878 626.456,716.924 717.032,680.878 807.669,716.924 898.304,680.877 988.942,716.924 1076.668,682.035 
	1076.668,682.048 1164.361,716.924 1254.999,680.877 1345.635,716.924 1436.273,680.877 1526.911,716.924 1617.487,680.878 
	1708.125,716.924 1798.701,680.878 1889.337,716.924 1979.973,680.877 2070.611,716.924 2158.337,682.035 2158.337,665.028 "/>
<polygon opacity="0.35" fill="#231F20" enable-background="new    " points="2158.318,687.795 2070.611,722.676 1979.973,686.629 
	1889.337,722.676 1798.699,686.629 1708.123,722.676 1617.485,686.629 1526.909,722.676 1436.273,686.629 1345.635,722.676 
	1254.999,686.629 1164.361,722.676 1076.668,687.801 1076.668,687.844 1076.649,687.795 988.942,722.676 898.304,686.629 
	807.669,722.676 717.03,686.629 626.454,722.676 535.816,686.629 445.24,722.676 354.604,686.629 263.966,722.676 173.33,686.629 
	82.692,722.676 -5,687.801 -5,704.863 82.692,739.738 173.33,703.692 263.966,739.738 354.604,703.692 445.242,739.738 
	535.818,703.693 626.456,739.738 717.032,703.693 807.669,739.738 898.304,703.692 988.942,739.738 1076.668,704.851 
	1076.668,704.863 1164.361,739.738 1254.999,703.692 1345.635,739.738 1436.273,703.692 1526.911,739.738 1617.487,703.693 
	1708.125,739.738 1798.701,703.693 1889.337,739.738 1979.973,703.692 2070.611,739.738 2158.337,704.851 2158.337,687.844 "/>
<polygon opacity="0.35" fill="#231F20" enable-background="new    " points="2158.318,710.61 2070.611,745.491 1979.973,709.444 
	1889.337,745.491 1798.699,709.444 1708.123,745.491 1617.485,709.444 1526.909,745.491 1436.273,709.444 1345.635,745.491 
	1254.999,709.444 1164.361,745.491 1076.668,710.616 1076.668,710.659 1076.649,710.61 988.942,745.491 898.304,709.444 
	807.669,745.491 717.03,709.444 626.454,745.491 535.816,709.444 445.24,745.491 354.604,709.444 263.966,745.491 173.33,709.444 
	82.692,745.491 -5,710.616 -5,727.679 82.692,762.554 173.33,726.509 263.966,762.554 354.604,726.509 445.242,762.554 
	535.818,726.509 626.456,762.554 717.032,726.509 807.669,762.554 898.304,726.509 988.942,762.554 1076.668,727.667 
	1076.668,727.679 1164.361,762.554 1254.999,726.509 1345.635,762.554 1436.273,726.509 1526.911,762.554 1617.487,726.509 
	1708.125,762.554 1798.701,726.509 1889.337,762.554 1979.973,726.509 2070.611,762.554 2158.337,727.667 2158.337,710.659 "/>
<polygon opacity="0.35" fill="#231F20" enable-background="new    " points="2158.318,733.425 2070.611,768.306 1979.973,732.259 
	1889.337,768.306 1798.699,732.259 1708.123,768.306 1617.485,732.259 1526.909,768.306 1436.273,732.259 1345.635,768.306 
	1254.999,732.259 1164.361,768.306 1076.668,733.431 1076.668,733.474 1076.649,733.425 988.942,768.306 898.304,732.259 
	807.669,768.306 717.03,732.259 626.454,768.306 535.816,732.259 445.24,768.306 354.604,732.259 263.966,768.306 173.33,732.259 
	82.692,768.306 -5,733.431 -5,750.493 82.692,785.369 173.33,749.322 263.966,785.369 354.604,749.322 445.242,785.369 
	535.818,749.323 626.456,785.369 717.032,749.323 807.669,785.369 898.304,749.322 988.942,785.369 1076.668,750.479 
	1076.668,750.493 1164.361,785.369 1254.999,749.322 1345.635,785.369 1436.273,749.322 1526.911,785.369 1617.487,749.323 
	1708.125,785.369 1798.701,749.323 1889.337,785.369 1979.973,749.322 2070.611,785.369 2158.337,750.479 2158.337,733.474 "/>
<polygon opacity="0.35" fill="#231F20" enable-background="new    " points="2158.318,756.239 2070.611,791.12 1979.973,755.073 
	1889.337,791.12 1798.699,755.073 1708.123,791.12 1617.485,755.073 1526.909,791.12 1436.273,755.073 1345.635,791.12 
	1254.999,755.073 1164.361,791.12 1076.668,756.245 1076.668,756.288 1076.649,756.239 988.942,791.12 898.304,755.073 
	807.669,791.12 717.03,755.073 626.454,791.12 535.816,755.073 445.24,791.12 354.604,755.073 263.966,791.12 173.33,755.073 
	82.692,791.12 -5,756.245 -5,773.308 82.692,808.185 173.33,772.138 263.966,808.185 354.604,772.138 445.242,808.185 
	535.818,772.138 626.456,808.185 717.032,772.138 807.669,808.185 898.304,772.138 988.942,808.185 1076.668,773.296 
	1076.668,773.308 1164.361,808.185 1254.999,772.138 1345.635,808.185 1436.273,772.138 1526.911,808.185 1617.487,772.138 
	1708.125,808.185 1798.701,772.138 1889.337,808.185 1979.973,772.138 2070.611,808.185 2158.337,773.296 2158.337,756.288 "/>
<polygon opacity="0.35" fill="#231F20" enable-background="new    " points="2158.318,779.056 2070.611,813.938 1979.973,777.89 
	1889.337,813.938 1798.699,777.89 1708.123,813.938 1617.485,777.89 1526.909,813.938 1436.273,777.89 1345.635,813.938 
	1254.999,777.89 1164.361,813.938 1076.668,779.062 1076.668,779.104 1076.649,779.056 988.942,813.938 898.304,777.89 
	807.669,813.938 717.03,777.89 626.454,813.938 535.816,777.89 445.24,813.938 354.604,777.89 263.966,813.938 173.33,777.89 
	82.692,813.938 -5,779.062 -5,796.124 82.692,830.999 173.33,794.952 263.966,830.999 354.604,794.952 445.242,830.999 
	535.818,794.954 626.456,830.999 717.032,794.954 807.669,830.999 898.304,794.952 988.942,830.999 1076.668,796.11 
	1076.668,796.124 1164.361,830.999 1254.999,794.952 1345.635,830.999 1436.273,794.952 1526.911,830.999 1617.487,794.954 
	1708.125,830.999 1798.701,794.954 1889.337,830.999 1979.973,794.952 2070.611,830.999 2158.337,796.11 2158.337,779.104 "/>
<polygon opacity="0.35" fill="#231F20" enable-background="new    " points="2158.318,801.868 2070.611,836.751 1979.973,800.704 
	1889.337,836.751 1798.699,800.704 1708.123,836.749 1617.485,800.704 1526.909,836.749 1436.273,800.704 1345.635,836.751 
	1254.999,800.704 1164.361,836.751 1076.668,801.874 1076.668,801.919 1076.649,801.868 988.942,836.751 898.304,800.704 
	807.669,836.751 717.03,800.704 626.454,836.749 535.816,800.704 445.24,836.749 354.604,800.704 263.966,836.751 173.33,800.704 
	82.692,836.751 -5,801.874 -5,818.938 82.692,853.812 173.33,817.767 263.966,853.812 354.604,817.767 445.242,853.812 
	535.818,817.767 626.456,853.812 717.032,817.767 807.669,853.812 898.304,817.767 988.942,853.812 1076.668,818.925 
	1076.668,818.938 1164.361,853.812 1254.999,817.767 1345.635,853.812 1436.273,817.767 1526.911,853.812 1617.487,817.767 
	1708.125,853.812 1798.701,817.767 1889.337,853.812 1979.973,817.767 2070.611,853.812 2158.337,818.925 2158.337,801.919 "/>
<polygon opacity="0.35" fill="#231F20" enable-background="new    " points="2158.318,824.686 2070.611,859.566 1979.973,823.52 
	1889.337,859.566 1798.699,823.52 1708.123,859.564 1617.485,823.52 1526.909,859.564 1436.273,823.52 1345.635,859.566 
	1254.999,823.52 1164.361,859.566 1076.668,824.691 1076.668,824.734 1076.649,824.686 988.942,859.566 898.304,823.52 
	807.669,859.566 717.03,823.52 626.454,859.564 535.816,823.52 445.24,859.564 354.604,823.52 263.966,859.566 173.33,823.52 
	82.692,859.566 -5,824.691 -5,841.754 82.692,876.629 173.33,840.582 263.966,876.629 354.604,840.582 445.242,876.629 
	535.818,840.582 626.456,876.629 717.032,840.582 807.669,876.629 898.304,840.582 988.942,876.629 1076.668,841.74 
	1076.668,841.754 1164.361,876.629 1254.999,840.582 1345.635,876.629 1436.273,840.582 1526.911,876.629 1617.487,840.582 
	1708.125,876.629 1798.701,840.582 1889.337,876.629 1979.973,840.582 2070.611,876.629 2158.337,841.74 2158.337,824.734 "/>
<polygon opacity="0.35" fill="#231F20" enable-background="new    " points="2158.318,847.5 2070.611,882.381 1979.973,846.334 
	1889.337,882.381 1798.699,846.334 1708.123,882.381 1617.485,846.334 1526.909,882.381 1436.273,846.334 1345.635,882.381 
	1254.999,846.334 1164.361,882.381 1076.668,847.506 1076.668,847.549 1076.649,847.5 988.942,882.381 898.304,846.334 
	807.669,882.381 717.03,846.334 626.454,882.381 535.816,846.334 445.24,882.381 354.604,846.334 263.966,882.381 173.33,846.334 
	82.692,882.381 -5,847.506 -5,864.568 82.692,899.443 173.33,863.396 263.966,899.443 354.604,863.396 445.242,899.443 
	535.818,863.398 626.456,899.443 717.032,863.398 807.669,899.443 898.304,863.396 988.942,899.443 1076.668,864.555 
	1076.668,864.568 1164.361,899.443 1254.999,863.396 1345.635,899.443 1436.273,863.396 1526.911,899.443 1617.487,863.398 
	1708.125,899.443 1798.701,863.398 1889.337,899.443 1979.973,863.396 2070.611,899.443 2158.337,864.555 2158.337,847.549 "/>
<polygon opacity="0.35" fill="#231F20" enable-background="new    " points="2158.318,870.314 2070.611,905.195 1979.973,869.148 
	1889.337,905.195 1798.699,869.148 1708.123,905.195 1617.485,869.148 1526.909,905.195 1436.273,869.148 1345.635,905.195 
	1254.999,869.148 1164.361,905.195 1076.668,870.32 1076.668,870.363 1076.649,870.314 988.942,905.195 898.304,869.148 
	807.669,905.195 717.03,869.148 626.454,905.195 535.816,869.148 445.24,905.195 354.604,869.148 263.966,905.195 173.33,869.148 
	82.692,905.195 -5,870.32 -5,887.383 82.692,922.26 173.33,886.213 263.966,922.26 354.604,886.213 445.242,922.26 535.818,886.213 
	626.456,922.26 717.032,886.213 807.669,922.26 898.304,886.213 988.942,922.26 1076.668,887.371 1076.668,887.383 1164.361,922.26 
	1254.999,886.213 1345.635,922.26 1436.273,886.213 1526.911,922.26 1617.487,886.213 1708.125,922.26 1798.701,886.213 
	1889.337,922.26 1979.973,886.213 2070.611,922.26 2158.337,887.371 2158.337,870.363 "/>
<polygon opacity="0.35" fill="#231F20" enable-background="new    " points="2158.318,893.131 2070.611,928.012 1979.973,891.965 
	1889.337,928.012 1798.699,891.965 1708.123,928.012 1617.485,891.965 1526.909,928.012 1436.273,891.965 1345.635,928.012 
	1254.999,891.965 1164.361,928.012 1076.668,893.137 1076.668,893.18 1076.649,893.131 988.942,928.012 898.304,891.965 
	807.669,928.012 717.03,891.965 626.454,928.012 535.816,891.965 445.24,928.012 354.604,891.965 263.966,928.012 173.33,891.965 
	82.692,928.012 -5,893.137 -5,910.199 82.692,945.074 173.33,909.027 263.966,945.074 354.604,909.027 445.242,945.074 
	535.818,909.029 626.456,945.074 717.032,909.029 807.669,945.074 898.304,909.027 988.942,945.074 1076.668,910.186 
	1076.668,910.199 1164.361,945.074 1254.999,909.027 1345.635,945.074 1436.273,909.027 1526.911,945.074 1617.487,909.029 
	1708.125,945.074 1798.701,909.029 1889.337,945.074 1979.973,909.027 2070.611,945.074 2158.337,910.186 2158.337,893.18 "/>
<polygon opacity="0.35" fill="#231F20" enable-background="new    " points="2158.318,915.945 2070.611,950.826 1979.973,914.779 
	1889.337,950.826 1798.699,914.779 1708.123,950.826 1617.485,914.779 1526.909,950.826 1436.273,914.779 1345.635,950.826 
	1254.999,914.779 1164.361,950.826 1076.668,915.951 1076.668,915.994 1076.649,915.945 988.942,950.826 898.304,914.779 
	807.669,950.826 717.03,914.779 626.454,950.826 535.816,914.779 445.24,950.826 354.604,914.779 263.966,950.826 173.33,914.779 
	82.692,950.826 -5,915.951 -5,933.014 82.692,967.89 173.33,931.843 263.966,967.89 354.604,931.843 445.242,967.89 
	535.818,931.844 626.456,967.89 717.032,931.844 807.669,967.89 898.304,931.843 988.942,967.89 1076.668,933.001 1076.668,933.014 
	1164.361,967.89 1254.999,931.843 1345.635,967.89 1436.273,931.843 1526.911,967.89 1617.487,931.844 1708.125,967.89 
	1798.701,931.844 1889.337,967.89 1979.973,931.843 2070.611,967.89 2158.337,933.001 2158.337,915.994 "/>
<polygon opacity="0.35" fill="#231F20" enable-background="new    " points="2158.318,938.76 2070.611,973.641 1979.973,937.594 
	1889.337,973.641 1798.699,937.594 1708.123,973.641 1617.485,937.594 1526.909,973.641 1436.273,937.594 1345.635,973.641 
	1254.999,937.594 1164.361,973.641 1076.668,938.766 1076.668,938.809 1076.649,938.76 988.942,973.641 898.304,937.594 
	807.669,973.641 717.03,937.594 626.454,973.641 535.816,937.594 445.24,973.641 354.604,937.594 263.966,973.641 173.33,937.594 
	82.692,973.641 -5,938.766 -5,955.828 82.692,990.705 173.33,954.658 263.966,990.705 354.604,954.658 445.242,990.705 
	535.818,954.658 626.456,990.705 717.032,954.658 807.669,990.705 898.304,954.658 988.942,990.705 1076.668,955.816 
	1076.668,955.828 1164.361,990.705 1254.999,954.658 1345.635,990.705 1436.273,954.658 1526.911,990.705 1617.487,954.658 
	1708.125,990.705 1798.701,954.658 1889.337,990.705 1979.973,954.658 2070.611,990.705 2158.337,955.816 2158.337,938.809 "/>
<polygon opacity="0.35" fill="#231F20" enable-background="new    " points="2158.318,961.573 2070.611,996.456 1979.973,960.409 
	1889.337,996.456 1798.699,960.409 1708.123,996.454 1617.485,960.409 1526.909,996.454 1436.273,960.409 1345.635,996.456 
	1254.999,960.409 1164.361,996.456 1076.668,961.579 1076.668,961.624 1076.649,961.573 988.942,996.456 898.304,960.409 
	807.669,996.456 717.03,960.409 626.454,996.454 535.816,960.409 445.24,996.454 354.604,960.409 263.966,996.456 173.33,960.409 
	82.692,996.456 -5,961.579 -5,978.644 82.692,1013.519 173.33,977.472 263.966,1013.519 354.604,977.472 445.242,1013.519 
	535.818,977.472 626.456,1013.519 717.032,977.472 807.669,1013.519 898.304,977.472 988.942,1013.519 1076.668,978.63 
	1076.668,978.644 1164.361,1013.519 1254.999,977.472 1345.635,1013.519 1436.273,977.472 1526.911,1013.519 1617.487,977.472 
	1708.125,1013.519 1798.701,977.472 1889.337,1013.519 1979.973,977.472 2070.611,1013.519 2158.337,978.63 2158.337,961.624 "/>
<polygon opacity="0.35" fill="#231F20" enable-background="new    " points="2158.318,984.389 2070.611,1019.271 1979.973,983.225 
	1889.337,1019.271 1798.699,983.225 1708.123,1019.27 1617.485,983.225 1526.909,1019.27 1436.273,983.225 1345.635,1019.271 
	1254.999,983.225 1164.361,1019.271 1076.668,984.395 1076.668,984.439 1076.649,984.389 988.942,1019.271 898.304,983.225 
	807.669,1019.271 717.03,983.225 626.454,1019.27 535.816,983.225 445.24,1019.27 354.604,983.225 263.966,1019.271 173.33,983.225 
	82.692,1019.271 -5,984.395 -5,1001.459 82.692,1036.334 173.33,1000.287 263.966,1036.334 354.604,1000.287 445.242,1036.334 
	535.818,1000.287 626.456,1036.334 717.032,1000.287 807.669,1036.334 898.304,1000.287 988.942,1036.334 1076.668,1001.445 
	1076.668,1001.459 1164.361,1036.334 1254.999,1000.287 1345.635,1036.334 1436.273,1000.287 1526.911,1036.334 1617.487,1000.287 
	1708.125,1036.334 1798.701,1000.287 1889.337,1036.334 1979.973,1000.287 2070.611,1036.334 2158.337,1001.445 2158.337,984.439 
	"/>
<polygon opacity="0.35" fill="#231F20" enable-background="new    " points="2158.318,1007.204 2070.611,1042.086 
	1979.973,1006.039 1889.337,1042.086 1798.699,1006.039 1708.123,1042.085 1617.485,1006.039 1526.909,1042.085 1436.273,1006.039 
	1345.635,1042.086 1254.999,1006.039 1164.361,1042.086 1076.668,1007.21 1076.668,1007.254 1076.649,1007.204 988.942,1042.086 
	898.304,1006.039 807.669,1042.086 717.03,1006.039 626.454,1042.085 535.816,1006.039 445.24,1042.085 354.604,1006.039 
	263.966,1042.086 173.33,1006.039 82.692,1042.086 -5,1007.21 -5,1024.273 82.692,1059.149 173.33,1023.104 263.966,1059.149 
	354.604,1023.104 445.242,1059.149 535.818,1023.104 626.456,1059.149 717.032,1023.104 807.669,1059.149 898.304,1023.104 
	988.942,1059.149 1076.668,1024.26 1076.668,1024.273 1164.361,1059.149 1254.999,1023.104 1345.635,1059.149 1436.273,1023.104 
	1526.911,1059.149 1617.487,1023.104 1708.125,1059.149 1798.701,1023.104 1889.337,1059.149 1979.973,1023.104 2070.611,1059.149 
	2158.337,1024.26 2158.337,1007.254 "/>
<polygon opacity="0.35" fill="#231F20" enable-background="new    " points="2158.318,1030.02 2070.611,1064.9 1979.973,1028.854 
	1889.337,1064.9 1798.699,1028.854 1708.123,1064.9 1617.485,1028.854 1526.909,1064.9 1436.273,1028.854 1345.635,1064.9 
	1254.999,1028.854 1164.361,1064.9 1076.668,1030.025 1076.668,1030.068 1076.649,1030.02 988.942,1064.9 898.304,1028.854 
	807.669,1064.9 717.03,1028.854 626.454,1064.9 535.816,1028.854 445.24,1064.9 354.604,1028.854 263.966,1064.9 173.33,1028.854 
	82.692,1064.9 -5,1030.025 -5,1047.088 82.692,1081.965 173.33,1045.918 263.966,1081.965 354.604,1045.918 445.242,1081.965 
	535.818,1045.918 626.456,1081.965 717.032,1045.918 807.669,1081.965 898.304,1045.918 988.942,1081.965 1076.668,1047.075 
	1076.668,1047.088 1164.361,1081.965 1254.999,1045.918 1345.635,1081.965 1436.273,1045.918 1526.911,1081.965 1617.487,1045.918 
	1708.125,1081.965 1798.701,1045.918 1889.337,1081.965 1979.973,1045.918 2070.611,1081.965 2158.337,1047.075 2158.337,1030.068 
	"/>
</svg>
