<?xml version="1.0" encoding="utf-8"?>
<!-- Generator: Adobe Illustrator 19.0.0, SVG Export Plug-In . SVG Version: 6.00 Build 0)  -->
<svg version="1.1" id="Layer_1" xmlns="http://www.w3.org/2000/svg" xmlns:xlink="http://www.w3.org/1999/xlink" x="0px" y="0px"
	 viewBox="774 -104 1000 1000" style="enable-background:new 774 -104 1000 1000;" xml:space="preserve">
<style type="text/css">
	.st0{fill:none;stroke:#231F20;stroke-width:15.8553;stroke-miterlimit:10;}
</style>
<g id="XMLID_91_">
	<polyline id="XMLID_156_" class="st0" points="438.9,767.7 587,826.7 735.1,767.7 883.2,826.7 1031.3,767.7 1179.4,826.7 
		1327.4,767.7 1475.5,826.7 1623.6,767.7 1771.7,826.7 1919.8,767.7 2067.9,826.7 2215.9,767.7 	"/>
</g>
<g id="XMLID_46_">
	<polyline id="XMLID_154_" class="st0" points="438.9,802.2 587,861.1 735.1,802.2 883.2,861.1 1031.3,802.2 1179.4,861.1 
		1327.4,802.2 1475.5,861.1 1623.6,802.2 1771.7,861.1 1919.8,802.2 2067.9,861.1 2215.9,802.2 	"/>
</g>
<g id="XMLID_40_">
	<polyline id="XMLID_152_" class="st0" points="438.9,836.6 587,895.6 735.1,836.6 883.2,895.6 1031.3,836.6 1179.4,895.6 
		1327.4,836.6 1475.5,895.6 1623.6,836.6 1771.7,895.6 1919.8,836.6 2067.9,895.6 2215.9,836.6 	"/>
</g>
<g id="XMLID_34_">
	<polyline id="XMLID_150_" class="st0" points="438.9,871.1 587,930.1 735.1,871.1 883.2,930.1 1031.3,871.1 1179.4,930.1 
		1327.4,871.1 1475.5,930.1 1623.6,871.1 1771.7,930.1 1919.8,871.1 2067.9,930.1 2215.9,871.1 	"/>
</g>
<g id="XMLID_122_">
	<polyline id="XMLID_148_" class="st0" points="438.9,629.8 587,688.8 735.1,629.8 883.2,688.8 1031.3,629.8 1179.4,688.8 
		1327.4,629.8 1475.5,688.8 1623.6,629.8 1771.7,688.8 1919.8,629.8 2067.9,688.8 2215.9,629.8 	"/>
</g>
<g id="XMLID_92_">
	<polyline id="XMLID_145_" class="st0" points="438.9,664.2 587,723.2 735.1,664.2 883.2,723.2 1031.3,664.2 1179.4,723.2 
		1327.4,664.2 1475.5,723.2 1623.6,664.2 1771.7,723.2 1919.8,664.2 2067.9,723.2 2215.9,664.2 	"/>
</g>
<g id="XMLID_44_">
	<polyline id="XMLID_142_" class="st0" points="438.9,698.7 587,757.7 735.1,698.7 883.2,757.7 1031.3,698.7 1179.4,757.7 
		1327.4,698.7 1475.5,757.7 1623.6,698.7 1771.7,757.7 1919.8,698.7 2067.9,757.7 2215.9,698.7 	"/>
</g>
<g id="XMLID_36_">
	<polyline id="XMLID_139_" class="st0" points="438.9,733.2 587,792.2 735.1,733.2 883.2,792.2 1031.3,733.2 1179.4,792.2 
		1327.4,733.2 1475.5,792.2 1623.6,733.2 1771.7,792.2 1919.8,733.2 2067.9,792.2 2215.9,733.2 	"/>
</g>
<g id="XMLID_146_">
	<polyline id="XMLID_136_" class="st0" points="439,491.9 587.1,550.8 735.1,491.9 883.2,550.8 1031.2,491.9 1179.3,550.8 
		1327.4,491.9 1475.5,550.8 1623.6,491.9 1771.6,550.8 1919.7,491.9 2067.8,550.8 2215.9,491.9 	"/>
</g>
<g id="XMLID_143_">
	<polyline id="XMLID_133_" class="st0" points="439,526.3 587.1,585.3 735.1,526.3 883.2,585.3 1031.2,526.3 1179.3,585.3 
		1327.4,526.3 1475.5,585.3 1623.6,526.3 1771.6,585.3 1919.7,526.3 2067.8,585.3 2215.9,526.3 	"/>
</g>
<g id="XMLID_140_">
	<polyline id="XMLID_130_" class="st0" points="439,560.8 587.1,619.8 735.1,560.8 883.2,619.8 1031.2,560.8 1179.3,619.8 
		1327.4,560.8 1475.5,619.8 1623.6,560.8 1771.6,619.8 1919.7,560.8 2067.8,619.8 2215.9,560.8 	"/>
</g>
<g id="XMLID_137_">
	<polyline id="XMLID_127_" class="st0" points="439,595.3 587.1,654.3 735.1,595.3 883.2,654.3 1031.2,595.3 1179.3,654.3 
		1327.4,595.3 1475.5,654.3 1623.6,595.3 1771.6,654.3 1919.7,595.3 2067.8,654.3 2215.9,595.3 	"/>
</g>
<g id="XMLID_134_">
	<polyline id="XMLID_124_" class="st0" points="438.9,354 587,412.9 735.1,354 883.2,412.9 1031.3,354 1179.4,412.9 1327.4,354 
		1475.5,412.9 1623.6,354 1771.7,412.9 1919.8,354 2067.9,412.9 2215.9,354 	"/>
</g>
<g id="XMLID_131_">
	<polyline id="XMLID_121_" class="st0" points="438.9,388.4 587,447.4 735.1,388.4 883.2,447.4 1031.3,388.4 1179.4,447.4 
		1327.4,388.4 1475.5,447.4 1623.6,388.4 1771.7,447.4 1919.8,388.4 2067.9,447.4 2215.9,388.4 	"/>
</g>
<g id="XMLID_128_">
	<polyline id="XMLID_119_" class="st0" points="438.9,422.9 587,481.9 735.1,422.9 883.2,481.9 1031.3,422.9 1179.4,481.9 
		1327.4,422.9 1475.5,481.9 1623.6,422.9 1771.7,481.9 1919.8,422.9 2067.9,481.9 2215.9,422.9 	"/>
</g>
<g id="XMLID_125_">
	<polyline id="XMLID_117_" class="st0" points="438.9,457.4 587,516.4 735.1,457.4 883.2,516.4 1031.3,457.4 1179.4,516.4 
		1327.4,457.4 1475.5,516.4 1623.6,457.4 1771.7,516.4 1919.8,457.4 2067.9,516.4 2215.9,457.4 	"/>
</g>
<g id="XMLID_194_">
	<polyline id="XMLID_196_" class="st0" points="438.9,78.1 587,137.1 735.1,78.1 883.2,137.1 1031.3,78.1 1179.4,137.1 1327.4,78.1 
		1475.5,137.1 1623.6,78.1 1771.7,137.1 1919.8,78.1 2067.9,137.1 2215.9,78.1 	"/>
</g>
<g id="XMLID_191_">
	<polyline id="XMLID_193_" class="st0" points="438.9,147.1 587,206.1 735.1,147.1 883.2,206.1 1031.3,147.1 1179.4,206.1 
		1327.4,147.1 1475.5,206.1 1623.6,147.1 1771.7,206.1 1919.8,147.1 2067.9,206.1 2215.9,147.1 	"/>
</g>
<g id="XMLID_188_">
	<polyline id="XMLID_190_" class="st0" points="438.9,216 587,275 735.1,216 883.2,275 1031.3,216 1179.4,275 1327.4,216 
		1475.5,275 1623.6,216 1771.7,275 1919.8,216 2067.9,275 2215.9,216 	"/>
</g>
<g id="XMLID_185_">
	<polyline id="XMLID_187_" class="st0" points="438.9,285 587,344 735.1,285 883.2,344 1031.3,285 1179.4,344 1327.4,285 
		1475.5,344 1623.6,285 1771.7,344 1919.8,285 2067.9,344 2215.9,285 	"/>
</g>
<g id="XMLID_179_">
	<polyline id="XMLID_181_" class="st0" points="438.9,-128.8 587,-69.8 735.1,-128.8 883.2,-69.8 1031.3,-128.8 1179.4,-69.8 
		1327.4,-128.8 1475.5,-69.8 1623.5,-128.8 1771.6,-69.8 1919.7,-128.8 2067.8,-69.8 2215.9,-128.8 	"/>
</g>
<g id="XMLID_176_">
	<polyline id="XMLID_178_" class="st0" points="438.9,-59.8 587,-0.8 735.1,-59.8 883.2,-0.8 1031.3,-59.8 1179.4,-0.8 
		1327.4,-59.8 1475.5,-0.8 1623.5,-59.8 1771.6,-0.8 1919.7,-59.8 2067.8,-0.8 2215.9,-59.8 	"/>
</g>
<g id="XMLID_173_">
	<polyline id="XMLID_175_" class="st0" points="438.9,9.2 587,68.1 735.1,9.2 883.2,68.1 1031.3,9.2 1179.4,68.1 1327.4,9.2 
		1475.5,68.1 1623.5,9.2 1771.6,68.1 1919.7,9.2 2067.8,68.1 2215.9,9.2 	"/>
</g>
<g id="XMLID_242_">
	<polyline id="XMLID_172_" class="st0" points="438.9,112.6 587,171.6 735.1,112.6 883.2,171.6 1031.3,112.6 1179.4,171.6 
		1327.4,112.6 1475.5,171.6 1623.6,112.6 1771.7,171.6 1919.8,112.6 2067.9,171.6 2215.9,112.6 	"/>
</g>
<g id="XMLID_239_">
	<polyline id="XMLID_170_" class="st0" points="438.9,181.5 587,240.5 735.1,181.5 883.2,240.5 1031.3,181.5 1179.4,240.5 
		1327.4,181.5 1475.5,240.5 1623.6,181.5 1771.7,240.5 1919.8,181.5 2067.9,240.5 2215.9,181.5 	"/>
</g>
<g id="XMLID_236_">
	<polyline id="XMLID_168_" class="st0" points="438.9,250.5 587,309.5 735.1,250.5 883.2,309.5 1031.3,250.5 1179.4,309.5 
		1327.4,250.5 1475.5,309.5 1623.6,250.5 1771.7,309.5 1919.8,250.5 2067.9,309.5 2215.9,250.5 	"/>
</g>
<g id="XMLID_233_">
	<polyline id="XMLID_166_" class="st0" points="438.9,319.5 587,378.4 735.1,319.5 883.2,378.4 1031.3,319.5 1179.4,378.4 
		1327.4,319.5 1475.5,378.4 1623.6,319.5 1771.7,378.4 1919.8,319.5 2067.9,378.4 2215.9,319.5 	"/>
</g>
<g id="XMLID_230_">
	<polyline id="XMLID_164_" class="st0" points="438.9,-163.2 587,-104.3 735.1,-163.2 883.2,-104.3 1031.3,-163.2 1179.4,-104.3 
		1327.4,-163.2 1475.5,-104.3 1623.5,-163.2 1771.6,-104.3 1919.7,-163.2 2067.8,-104.3 2215.9,-163.2 	"/>
</g>
<g id="XMLID_227_">
	<polyline id="XMLID_162_" class="st0" points="438.9,-94.3 587,-35.3 735.1,-94.3 883.2,-35.3 1031.3,-94.3 1179.4,-35.3 
		1327.4,-94.3 1475.5,-35.3 1623.5,-94.3 1771.6,-35.3 1919.7,-94.3 2067.8,-35.3 2215.9,-94.3 	"/>
</g>
<g id="XMLID_224_">
	<polyline id="XMLID_160_" class="st0" points="438.9,-25.3 587,33.7 735.1,-25.3 883.2,33.7 1031.3,-25.3 1179.4,33.7 
		1327.4,-25.3 1475.5,33.7 1623.5,-25.3 1771.6,33.7 1919.7,-25.3 2067.8,33.7 2215.9,-25.3 	"/>
</g>
<g id="XMLID_221_">
	<polyline id="XMLID_158_" class="st0" points="438.9,43.6 587,102.6 735.1,43.6 883.2,102.6 1031.3,43.6 1179.4,102.6 1327.4,43.6 
		1475.5,102.6 1623.5,43.6 1771.6,102.6 1919.7,43.6 2067.8,102.6 2215.9,43.6 	"/>
</g>
</svg>
